<?xml version="1.0" encoding="utf-8"?>
<!-- Generator: Adobe Illustrator 16.0.4, SVG Export Plug-In . SVG Version: 6.00 Build 0)  -->
<!DOCTYPE svg PUBLIC "-//W3C//DTD SVG 1.1//EN" "http://www.w3.org/Graphics/SVG/1.1/DTD/svg11.dtd">
<svg version="1.1" id="Layer_1" xmlns="http://www.w3.org/2000/svg" xmlns:xlink="http://www.w3.org/1999/xlink" x="0px" y="0px"
	 width="595.28px" height="841.89px" viewBox="0 0 595.28 841.89" enable-background="new 0 0 595.28 841.89" xml:space="preserve">
<g>
	<g>
		<g>
			<g>
				<path fill="#515151" d="M287.378,449.018c0,0.667,0,1.324,0,1.994h0.934c1.426,0,2.277,0.676,2.277,2.149
					c0,1.454-0.852,2.103-2.277,2.103h-1.828c0-2.352,0-4.709,0-7.062h3.511v0.816H287.378z M288.329,451.843h-0.951v2.589h0.951
					c1.054,0,1.385-0.494,1.385-1.271C289.714,452.373,289.383,451.843,288.329,451.843z"/>
				<path fill="#515151" d="M295.114,448.201v0.77h-2.688v2.124h2.431v0.812h-2.431v2.544h2.918v0.812h-3.788v-7.062H295.114z"/>
				<path fill="#515151" d="M298.086,449.053v6.211h-0.87v-6.211h-1.463v-0.804h3.797v0.804H298.086z"/>
				<path fill="#515151" d="M304.733,452.95c0,1.546-0.345,2.377-2.284,2.377c-1.94,0-2.288-0.831-2.288-2.377v-2.46
					c0-1.547,0.348-2.377,2.288-2.377c1.939,0,2.284,0.83,2.284,2.377V452.95z M303.856,450.479c0-1.115-0.093-1.573-1.407-1.573
					c-1.319,0-1.409,0.458-1.409,1.573v2.479c0,1.117,0.09,1.555,1.409,1.555c1.314,0,1.407-0.438,1.407-1.555V450.479z"/>
				<path fill="#515151" d="M309.186,455.264v-2.955h-2.358v2.964h-0.888v-7.042h0.888v3.248h2.358v-3.248h0.87v7.033H309.186z"/>
				<path fill="#515151" d="M314.572,455.264v-2.955h-2.36v2.964h-0.887v-7.042h0.887v3.248h2.36v-3.248h0.87v7.033H314.572z"/>
				<path fill="#515151" d="M316.711,455.264v-7.062h0.87v2.326h1.034c1.447,0,1.994,0.594,1.994,2.038v0.778
					c0,1.409-0.768,1.92-1.994,1.92H316.711z M318.615,454.442c0.777,0,1.128-0.131,1.128-1.099v-0.778
					c0-0.961-0.36-1.208-1.128-1.208h-1.034v3.085H318.615z M321.652,448.201h0.87v7.062h-0.87V448.201z"/>
				<path fill="#515151" d="M327.323,448.201v0.77h-2.692v2.124h2.433v0.812h-2.433v2.544h2.92v0.812h-3.79v-7.062H327.323z"/>
				<path fill="#515151" d="M290.079,462.389c-0.014-0.851-0.184-1.236-1.355-1.236c-1.225,0-1.373,0.441-1.373,1.557v2.414
					c0,1.117,0.184,1.556,1.373,1.556s1.371-0.265,1.371-1.382h0.832c0,1.363-0.143,2.205-2.203,2.205
					c-2.055,0-2.25-0.842-2.25-2.386v-2.397c0-1.547,0.367-2.377,2.25-2.377c1.827,0,2.186,0.686,2.203,2.047H290.079z"/>
				<path fill="#515151" d="M293.735,461.244v6.213h-0.869v-6.213H291.4v-0.803h3.798v0.803H293.735z"/>
				<path fill="#515151" d="M297.803,460.395c1.235,0,2.004,0.504,2.004,1.923v0.766c0,1.456-0.558,2.04-2.004,2.04h-1.023v2.344
					h-0.87v-7.062L297.803,460.395z M296.779,461.22v3.072h1.023c0.779,0,1.137-0.239,1.137-1.209v-0.766
					c0-0.97-0.357-1.052-1.137-1.098H296.779z"/>
				<path fill="#515151" d="M305.303,465.142c0,1.548-0.346,2.379-2.286,2.379c-1.937,0-2.286-0.831-2.286-2.379v-2.459
					c0-1.546,0.35-2.379,2.286-2.379c1.94,0,2.286,0.833,2.286,2.379V465.142z M304.425,462.673c0-1.116-0.091-1.573-1.408-1.573
					c-1.319,0-1.409,0.457-1.409,1.573v2.48c0,1.114,0.09,1.554,1.409,1.554c1.317,0,1.408-0.439,1.408-1.554V462.673z"/>
				<path fill="#515151" d="M309.646,460.387h0.82v7.07h-0.865v-2.762l0.045-2.315l-2.321,5.077h-0.817v-7.07h0.869v3.008
					l-0.127,2.406L309.646,460.387z"/>
				<path fill="#515151" d="M313.506,461.244v6.213h-0.87v-6.213h-1.463v-0.803h3.793v0.803H313.506z"/>
				<path fill="#515151" d="M319.233,460.395v0.771h-2.685v2.121h2.435v0.814h-2.435v2.542h2.92v0.814h-3.79v-7.062H319.233z"/>
				<path fill="#515151" d="M319.851,466.643c1.326,0.082,1.262-1.152,1.271-2.579l0.026-3.669h3.659v7.062h-0.879v-6.237h-1.92
					l-0.028,2.86c-0.01,2.059-0.056,3.506-2.13,3.405V466.643z"/>
				<path fill="#515151" d="M326.076,467.457v-7.088h0.868v2.35h1.033c1.447,0,1.996,0.596,1.996,2.039v0.777
					c0,1.41-0.766,1.922-1.996,1.922H326.076z M327.978,466.633c0.777,0,1.126-0.128,1.126-1.098v-0.777
					c0-0.96-0.357-1.205-1.126-1.205h-1.033v3.08H327.978z"/>
				<path fill="#515151" d="M334.243,467.457v-2.955h-2.36v2.965h-0.887v-7.045h0.887v3.247h2.36v-3.247h0.87v7.035H334.243z"/>
				<path fill="#515151" d="M336.382,467.457v-7.062h0.869v2.324h1.034c1.44,0,1.995,0.596,1.995,2.039v0.777
					c0,1.41-0.771,1.922-1.995,1.922H336.382z M338.285,466.633c0.776,0,1.125-0.128,1.125-1.098v-0.777
					c0-0.96-0.357-1.205-1.125-1.205h-1.034v3.08H338.285z M341.32,460.395h0.873v7.062h-0.873V460.395z"/>
				<path fill="#515151" d="M346.991,460.395v0.771h-2.689v2.121h2.43v0.814h-2.43v2.542h2.917v0.814h-3.787v-7.062H346.991z"/>
				<path fill="#515151" d="M288.468,472.588c1.236,0,2.004,0.503,2.004,1.922v0.768c0,1.455-0.559,2.039-2.004,2.039h-1.026v2.342
					h-0.866v-7.062L288.468,472.588z M287.441,473.412v3.073h1.026c0.779,0,1.135-0.237,1.135-1.208v-0.768
					c0-0.971-0.355-1.054-1.135-1.098H287.441z"/>
				<path fill="#515151" d="M295.05,472.588v0.767h-2.688v2.124h2.435v0.814h-2.435v2.543h2.917v0.813h-3.783v-7.062H295.05z"/>
				<path fill="#515151" d="M301.425,478.816c0-1.51,0-4.711,0-6.229h0.887v7.062h-6.056v-7.062h0.879v6.229h1.729v-6.229h0.843
					v6.229H301.425z"/>
				<path fill="#515151" d="M307.139,472.588v0.767h-2.688v2.124h2.434v0.814h-2.434v2.543h2.917v0.813h-3.787v-7.062H307.139z"/>
				<path fill="#515151" d="M311.594,479.649v-2.955h-2.36v2.964h-0.887v-7.043h0.887v3.247h2.36v-3.247h0.869v7.034H311.594z"/>
				<path fill="#515151" d="M316.871,472.58h0.822v7.069h-0.87v-2.761l0.048-2.315l-2.323,5.076h-0.818v-7.069h0.872v3.008
					l-0.128,2.406L316.871,472.58z"/>
				<path fill="#515151" d="M318.946,474.518c0-1.427,0.775-1.93,2.012-1.93h1.902v7.062h-0.88v-2.634h-0.796l-1.426,2.625h-1.025
					l1.548-2.673c-1.078-0.22-1.335-1.005-1.335-1.993V474.518z M320.958,473.42c-0.778,0.054-1.145,0.119-1.145,1.098v0.457
					c0,0.968,0.366,1.21,1.145,1.21h1.022v-2.765H320.958z"/>
			</g>
		</g>
		<g>
			<g>
				<path fill="#515151" d="M297.91,424.482v2.934h-8.427v2.381h5.103c3.03,0,4.781,1.752,4.781,4.529
					c0,2.76-1.714,4.449-4.765,4.449h-8.703v-14.293H297.91z M289.483,435.842h3.843c1.754,0,2.458-0.295,2.458-1.615
					c0-1.279-0.846-1.494-2.636-1.494h-3.665V435.842z"/>
				<path fill="#515151" d="M313.862,429.699c-0.475-1.752-1.912-2.658-4.274-2.658c-2.851,0-4.625,1.732-4.625,4.589
					c0,2.854,1.774,4.586,4.625,4.586c2.521,0,4.079-1.122,4.312-2.991h3.918c-0.372,3.525-3.523,5.927-8.229,5.927
					c-5.258,0-8.562-2.993-8.562-7.521s3.305-7.523,8.562-7.523c4.706,0,7.817,2.364,8.173,5.593H313.862z"/>
				<path fill="#515151" d="M320.241,424.482h8.469c3.349,0,5.259,1.852,5.259,4.863c0,3.031-1.91,4.941-5.259,4.941h-4.884v4.488
					h-3.585V424.482z M323.826,431.355h3.288c2.229,0,3.268-0.375,3.268-1.953c0-1.633-0.903-1.986-3.032-1.986h-3.523V431.355z"/>
			</g>
		</g>
	</g>
	<g>
		<polygon fill="#B35B9C" points="286.941,413.729 305.801,402.841 305.801,405.607 286.93,416.489 268.08,405.607 268.08,402.841 
					"/>
		<polygon fill="#B35B9C" points="268.08,398.086 268.08,400.853 286.93,411.735 305.801,400.853 305.801,398.086 286.941,408.976 
					"/>
		<polygon fill="#B35B9C" points="268.08,393.332 268.08,396.097 286.93,406.98 305.801,396.097 305.801,393.332 286.941,404.222 		
			"/>
		<polygon fill="#B35B9C" points="268.08,388.582 268.08,391.345 286.93,402.227 305.801,391.345 305.801,388.582 286.941,399.467 
					"/>
		<polygon fill="#B35B9C" points="268.08,383.826 268.08,386.59 286.93,397.471 305.801,386.59 305.801,383.826 286.941,394.713 		
			"/>
		<g>
			<polygon fill="#3AA5B8" points="307.757,360.953 305.362,362.335 324.222,373.225 324.222,395.002 326.614,393.62 
				326.614,371.854 			"/>
			<polygon fill="#3AA5B8" points="301.242,364.712 320.102,375.604 320.105,397.376 322.498,395.996 322.498,374.231 
				303.641,363.331 			"/>
			<polygon fill="#3AA5B8" points="297.128,367.089 315.984,377.98 315.984,399.756 318.381,398.375 318.381,376.61 
				299.521,365.706 			"/>
			<polygon fill="#3AA5B8" points="293.01,369.466 311.87,380.357 311.87,402.131 314.264,400.75 314.264,378.986 295.401,368.084 
							"/>
			<polygon fill="#3AA5B8" points="288.894,371.846 307.751,382.734 307.751,404.51 310.147,403.125 310.147,381.362 
				291.288,370.464 			"/>
		</g>
		<polygon fill="#E68E84" points="266.12,360.953 247.257,371.854 247.257,393.62 249.65,395.002 249.653,373.225 268.514,362.335 
					"/>
		<polygon fill="#E68E84" points="270.235,363.331 251.377,374.231 251.378,395.996 253.771,397.376 253.771,375.604 
			272.632,364.712 		"/>
		<polygon fill="#E68E84" points="274.353,365.706 255.495,376.61 255.495,398.375 257.885,399.756 257.885,377.98 276.745,367.089 
					"/>
		<polygon fill="#E68E84" points="278.471,368.084 259.609,378.986 259.609,400.75 262.002,402.131 262.005,380.357 
			280.867,369.466 		"/>
		<polygon fill="#E68E84" points="282.588,370.464 263.729,381.362 263.729,403.125 266.122,404.51 266.122,382.734 
			284.982,371.846 		"/>
	</g>
</g>
</svg>
