<?xml version="1.0" encoding="utf-8"?>
<!-- Generator: Adobe Illustrator 16.0.4, SVG Export Plug-In . SVG Version: 6.00 Build 0)  -->
<!DOCTYPE svg PUBLIC "-//W3C//DTD SVG 1.1//EN" "http://www.w3.org/Graphics/SVG/1.1/DTD/svg11.dtd">
<svg version="1.1" id="Layer_1" xmlns="http://www.w3.org/2000/svg" xmlns:xlink="http://www.w3.org/1999/xlink" x="0px" y="0px"
	 width="595.28px" height="841.89px" viewBox="0 0 595.28 841.89" enable-background="new 0 0 595.28 841.89" xml:space="preserve">
<g>
	<polygon fill="#EDEDED" points="303.484,409.031 313.988,427.295 316.834,427.295 306.316,409.046 	"/>
	<polygon fill="#EDEDED" points="312.773,429.754 309.926,429.754 300.274,413.157 227.821,413.174 229.243,410.707 
		301.702,410.707 	"/>
	<polygon fill="#EDEDED" points="344.632,410.704 365.7,410.712 367.118,413.176 346.056,413.157 335.471,431.368 334.053,428.901 	
		"/>
	<polygon fill="#EDEDED" points="334.053,428.967 344.555,410.704 347.401,410.704 336.889,428.956 347.401,447.207 
		344.555,447.207 	"/>
	<polygon fill="#EDEDED" points="336.426,429.76 315.354,429.757 313.936,427.292 334.998,427.309 345.582,409.099 347.002,411.562 
			"/>
	<polygon fill="#EDEDED" points="347.002,411.496 336.496,429.76 333.652,429.76 344.166,411.511 333.652,393.258 336.496,393.258 	
		"/>
</g>
</svg>
