<?xml version="1.0" encoding="utf-8"?>
<!-- Generator: Adobe Illustrator 16.0.4, SVG Export Plug-In . SVG Version: 6.00 Build 0)  -->
<!DOCTYPE svg PUBLIC "-//W3C//DTD SVG 1.1//EN" "http://www.w3.org/Graphics/SVG/1.1/DTD/svg11.dtd">
<svg version="1.1" id="Layer_1" xmlns="http://www.w3.org/2000/svg" xmlns:xlink="http://www.w3.org/1999/xlink" x="0px" y="0px"
	 width="595.28px" height="841.89px" viewBox="0 0 595.28 841.89" enable-background="new 0 0 595.28 841.89" xml:space="preserve">
<g>
	<polygon fill="#FFFFFF" points="304.334,409.823 314.838,428.087 317.684,428.087 307.166,409.838 	"/>
	<polygon fill="#FFFFFF" points="313.623,430.546 310.775,430.546 301.124,413.949 228.671,413.966 230.093,411.499 
		302.552,411.499 	"/>
	<polygon fill="#FFFFFF" points="345.481,411.496 366.55,411.504 367.968,413.968 346.905,413.949 336.32,432.16 334.902,429.693 	
		"/>
	<polygon fill="#FFFFFF" points="334.902,429.759 345.404,411.496 348.251,411.496 337.738,429.748 348.251,447.999 
		345.404,447.999 	"/>
	<polygon fill="#FFFFFF" points="337.275,430.552 316.204,430.549 314.785,428.084 335.848,428.101 346.432,409.891 
		347.852,412.354 	"/>
	<polygon fill="#FFFFFF" points="347.852,412.288 337.346,430.552 334.502,430.552 345.016,412.303 334.502,394.05 337.346,394.05 	
		"/>
</g>
</svg>
