<?xml version="1.0" encoding="utf-8"?>
<!-- Generator: Adobe Illustrator 16.0.4, SVG Export Plug-In . SVG Version: 6.00 Build 0)  -->
<!DOCTYPE svg PUBLIC "-//W3C//DTD SVG 1.1//EN" "http://www.w3.org/Graphics/SVG/1.1/DTD/svg11.dtd">
<svg version="1.1" id="Layer_1" xmlns="http://www.w3.org/2000/svg" xmlns:xlink="http://www.w3.org/1999/xlink" x="0px" y="0px"
	 width="595.28px" height="841.89px" viewBox="0 0 595.28 841.89" enable-background="new 0 0 595.28 841.89" xml:space="preserve">
<g>
	<g>
		<polygon fill="#C681B0" points="387.36,553.263 403.532,580.685 407.825,580.647 391.647,553.229 407.228,525.481 
			402.938,525.526 		"/>
		<polygon fill="#C681B0" points="426.854,364.233 370.188,364.212 372.336,367.933 429.002,367.944 444.99,340.448 
			442.842,336.722 		"/>
		<path fill="#C681B0" d="M229.729,336.513l13.754,23.825l1.749-3.028l-13.774-23.823h-27.504l-1.744,3.023L229.729,336.513z
			 M283.582,383.903l13.738,23.63h0.014l0.015,0.021l0.011-0.021l27.327-0.003l1.842-3.203l-27.343,0.023l-13.739-23.634h-0.014
			l-0.012-0.019l-0.011,0.019l-27.325,0.007l-1.844,3.204L283.582,383.903z M330.942,349.665l-0.01-0.011l0.007-0.005
			l-13.643-23.707h-3.789l0.008,0.012l-23.684,0.07l-1.846,3.199l27.362-0.024l7.204,12.4l18.305,31.673l-11.763,20.438
			l-23.688,0.022l-13.747-23.654l-1.842,3.2l13.735,23.637l23.697-0.007l-0.044,0.072h3.69l13.642-23.69l-13.642-23.625H330.942z
			 M337.054,396.98l13.639-23.69l-13.639-23.725h-3.693l13.654,23.707L333.36,396.98H337.054z M160.406,307.683l13.75-23.813
			l-13.75-23.849h-3.494l13.757,23.83l-13.757,23.832H160.406z M296.127,409.704l-0.008-0.012l0.001-0.007l-13.635-23.702
			l-27.468,0.078l-1.848,3.2l27.363-0.025l11.897,20.474l-11.786,20.465l-23.669,0.021l-13.746-23.655l-1.84,3.201l13.742,23.636
			l27.354,0.015L296.127,409.704z M164.662,283.851l-13.757,23.832h3.491l13.749-23.813l-13.749-23.849h-3.491L164.662,283.851z
			 M262.512,461.472l-1.837,3.201l13.737,23.637l27.369-0.008l1.844-3.198l-27.363,0.017L262.512,461.472z M182.066,417.129
			l-1.843,3.201l54.728-0.021l13.746,23.652l1.842-3.198l-13.737-23.641L182.066,417.129z M158.246,411.885l-1.844,3.201
			l81.929-0.023l-0.008,0.019l13.738,23.628h0.062l23.482-0.001l-10.107,17.566l-0.065-0.111l-1.847,3.2l13.742,23.634h0.021
			l0.031,0.05h3.694l-0.029-0.05l23.651-0.006l1.649-2.86l10.223-17.592l1.189,2.061l-0.003,0.007h-0.008l-1.848,3.201h0.012
			l-11.809,20.502h3.691l11.812-20.504l23.521-0.017l12.066,20.529l-13.365,23.802l3.694-0.039l13.38-23.838l-13.79-23.644
			l-23.676,0.007l-3.018-5.243l0.013-0.022l-1.84-3.206l-0.017,0.025l-3.833-6.663l23.606,0.005l13.737-23.635l-1.839-3.196
			l-13.748,23.65l-23.598-0.022l-1.23-2.13l23.641,0.002l13.737-23.639l-1.845-3.2l-13.746,23.652l-23.624-0.021l-0.04-0.067h-3.691
			l0.037,0.064h-0.037l1.838,3.201h0.046l1.227,2.137h-0.072l1.84,3.198h0.079l5.668,9.844L302.85,479.79l-23.664-0.021
			l-11.764-20.433l11.879-20.628h0.128l1.838-3.2l-27.309,0.022l0.009-0.021l-13.74-23.632h-0.066L158.246,411.885z
			 M361.377,488.199l-13.397,23.854l3.69-0.039l13.39-23.833l-13.897-23.576l-3.695,0.037L361.377,488.199z M261.022,375.479
			L247.756,352.5l0.072-0.114l-13.773-23.837h-27.394l0.02-0.031h-27.509l-12.028-20.822l12.028-20.825h24.037l-0.02,0.055h3.491
			l-1.728-3.056l-0.01-0.022h-27.501l-13.779,23.837l0.009,0.012l-0.009,0.021l13.779,23.837h27.38l-0.018,0.019l27.521,0.008
			l13.262,22.966l-0.074,0.129l13.775,23.821h27.485l13.716,23.757l27.365-0.007l1.844-3.205l-27.359,0.027l-13.774-23.624
			L261.022,375.479z"/>
	</g>
</g>
</svg>
