<?xml version="1.0" encoding="utf-8"?>
<!-- Generator: Adobe Illustrator 16.0.4, SVG Export Plug-In . SVG Version: 6.00 Build 0)  -->
<!DOCTYPE svg PUBLIC "-//W3C//DTD SVG 1.1//EN" "http://www.w3.org/Graphics/SVG/1.1/DTD/svg11.dtd">
<svg version="1.1" id="Layer_1" xmlns="http://www.w3.org/2000/svg" xmlns:xlink="http://www.w3.org/1999/xlink" x="0px" y="0px"
	 width="1333.433px" height="841.89px" viewBox="0 0 1333.433 841.89" enable-background="new 0 0 1333.433 841.89"
	 xml:space="preserve">
<g>
	<g>
		<polygon fill="#EDEDED" points="830.671,367.701 832.377,370.647 859.186,370.647 872.583,347.464 872.608,347.464 
			872.591,347.438 872.608,347.419 870.906,344.472 870.891,344.493 859.199,324.24 872.608,301.009 869.201,301.009 
			855.797,324.249 869.189,347.438 857.495,367.701 		"/>
		<polygon fill="#EDEDED" points="945.982,280.956 949.389,280.956 935.974,257.729 949.389,234.505 945.982,234.505 
			932.58,257.743 		"/>
		<polygon fill="#EDEDED" points="731.32,566.929 717.77,589.905 714.174,589.872 727.727,566.901 714.675,543.653 718.27,543.691 
					"/>
		<polygon fill="#EDEDED" points="698.231,408.556 745.708,408.537 743.908,411.655 696.431,411.665 683.037,388.628 
			684.837,385.505 		"/>
		<polygon fill="#EDEDED" points="1090.747,353.769 1104.039,376.896 1107.644,376.896 1094.333,353.781 1107.644,330.673 
			1104.039,330.673 		"/>
		<polygon fill="#EDEDED" points="1096.743,353.769 1110.041,376.896 1113.639,376.896 1100.329,353.781 1113.639,330.673 
			1110.041,330.673 		"/>
		<polygon fill="#EDEDED" points="1119.258,264.741 1132.56,287.864 1136.16,287.864 1122.85,264.76 1136.16,241.647 
			1132.56,241.647 		"/>
		<polygon fill="#EDEDED" points="1028.753,425.086 1042.053,448.208 1045.659,448.208 1032.345,425.101 1045.659,401.995 
			1042.053,401.995 		"/>
		<polygon fill="#EDEDED" points="1139.684,325.538 1113.006,325.541 1111.212,328.661 1137.876,328.64 1151.284,351.696 
			1153.07,348.576 		"/>
		<polygon fill="#EDEDED" points="1107.689,284.676 1134.369,284.681 1136.16,287.803 1109.498,287.777 1096.089,310.834 
			1094.298,307.712 		"/>
		<polygon fill="#EDEDED" points="1136.695,330.737 1110.019,330.741 1108.218,333.867 1134.888,333.843 1148.289,356.895 
			1150.085,353.772 		"/>
		<polygon fill="#EDEDED" points="1104.729,279.478 1131.407,279.48 1133.199,282.602 1106.531,282.582 1093.13,305.633 
			1091.336,302.515 		"/>
		<polygon fill="#EDEDED" points="1055.456,378.956 1082.134,378.959 1083.925,382.081 1057.256,382.058 1043.856,405.114 
			1042.06,401.995 		"/>
		<polygon fill="#EDEDED" points="1142.77,320.388 1116.096,320.39 1114.301,323.512 1140.966,323.491 1154.373,346.546 
			1156.17,343.423 		"/>
		<polygon fill="#EDEDED" points="1154.343,346.526 1181.016,346.518 1182.807,343.396 1156.146,343.417 1142.743,320.367 
			1140.948,323.487 		"/>
		<polygon fill="#EDEDED" points="1293.766,288.397 1280.22,265.421 1276.621,265.456 1290.178,288.423 1277.119,311.634 
			1280.723,311.634 		"/>
		<polygon fill="#EDEDED" points="1145.724,447.246 1119.046,447.247 1117.254,450.372 1143.914,450.348 1157.323,473.401 
			1159.11,470.284 		"/>
		<polygon fill="#EDEDED" points="1027.451,427.206 1000.778,427.208 998.982,430.329 1025.644,430.31 1040.847,456.481 
			1042.636,453.364 		"/>
		<polygon fill="#EDEDED" points="1042.693,396.79 1040.901,399.907 984.522,399.907 970.42,375.651 974.026,375.651 
			986.319,396.811 		"/>
		<polygon fill="#EDEDED" points="1165.099,241.647 1138.422,241.656 1136.628,244.773 1163.298,244.755 1176.698,267.81 
			1178.491,264.688 		"/>
		<polygon fill="#EDEDED" points="1052.494,373.754 1105.847,373.761 1107.644,376.88 1054.295,376.858 1040.893,399.915 
			1039.103,396.794 		"/>
		<g>
			<polygon fill="#EDEDED" points="1160.824,295.196 1160.833,295.177 1157.234,295.177 1143.936,318.271 1143.941,318.282 
				1143.936,318.29 1144.504,319.259 1157.234,341.396 1160.833,341.396 1160.796,341.323 1184.005,341.315 1185.803,338.2 
				1159.128,338.221 1147.531,318.271 1159.024,298.317 1182.094,298.298 1195.494,321.353 1197.292,318.233 1183.897,295.191 			
				"/>
			<polygon fill="#EDEDED" points="1200.272,313.047 1200.283,313.03 1186.887,289.995 1186.827,289.995 1163.941,289.999 
				1173.792,272.874 1173.855,272.983 1175.654,269.864 1162.256,246.826 1162.231,246.826 1162.21,246.78 1158.605,246.78 
				1158.634,246.826 1135.58,246.832 1134,249.586 1122.192,269.888 1123.991,273.01 1137.385,249.949 1160.451,249.978 
				1171.917,269.891 1160.336,289.999 1160.208,289.999 1158.416,293.117 1185.036,293.098 1185.033,293.114 1198.423,316.151 
				1198.49,316.151 1278.336,316.149 1280.131,313.026 			"/>
		</g>
		<polygon fill="#EDEDED" points="929.415,375.878 942.707,352.752 946.31,352.752 933.001,375.866 946.31,398.97 942.707,398.97 		
			"/>
		<polygon fill="#EDEDED" points="935.416,375.878 975.468,306.53 979.068,306.53 939.001,375.866 952.307,398.97 948.708,398.97 		
			"/>
		<polygon fill="#EDEDED" points="981.405,306.53 1008.087,306.541 1009.874,309.663 983.21,309.642 969.81,332.69 968.017,329.573 
					"/>
		<polygon fill="#EDEDED" points="1080.851,427.204 1107.529,427.212 1109.316,430.333 1082.653,430.306 1069.253,453.364 
			1067.46,450.243 		"/>
		<polygon fill="#EDEDED" points="1067.46,450.325 1080.754,427.204 1084.357,427.204 1071.049,450.313 1084.357,473.419 
			1080.754,473.419 		"/>
		<polygon fill="#EDEDED" points="1107.42,473.407 1080.742,473.392 1078.948,470.278 1105.619,470.302 1119.019,447.246 
			1120.812,450.364 		"/>
		<polygon fill="#EDEDED" points="1070.464,451.331 1043.782,451.325 1041.989,448.204 1068.655,448.227 1082.056,425.17 
			1083.849,428.287 		"/>
		<polygon fill="#EDEDED" points="1083.849,428.206 1070.554,451.331 1066.953,451.331 1080.26,428.223 1066.953,405.114 
			1070.554,405.114 		"/>
		<polygon fill="#EDEDED" points="940.31,398.958 927.019,422.082 923.416,422.082 936.723,398.97 923.416,375.86 927.019,375.86 		
			"/>
		<polygon fill="#EDEDED" points="927.068,422.034 900.391,422.026 898.594,418.909 925.259,418.929 938.661,395.88 
			940.459,398.999 		"/>
		<polygon fill="#EDEDED" points="900.394,422.011 927.074,422.003 928.87,418.882 902.193,418.909 888.797,395.853 886.998,398.97 
					"/>
		<polygon fill="#EDEDED" points="964.8,375.656 978.269,398.97 964.8,422.297 968.218,422.297 981.68,398.985 968.218,375.656 		
			"/>
		<polygon fill="#EDEDED" points="958.922,375.656 972.387,398.97 958.922,422.297 962.342,422.297 975.794,398.985 
			962.342,375.656 		"/>
		<polygon fill="#EDEDED" points="953.039,375.656 966.509,398.97 953.039,422.297 956.457,422.297 969.919,398.985 
			956.457,375.656 		"/>
		<polygon fill="#EDEDED" points="947.164,375.656 960.629,398.97 947.164,422.297 950.584,422.297 964.041,398.985 
			950.584,375.656 		"/>
		<polygon fill="#EDEDED" points="941.289,375.656 954.749,398.97 941.289,422.297 944.699,422.297 958.165,398.985 
			944.699,375.656 		"/>
		<polygon fill="#EDEDED" points="480.974,522.916 467.675,499.793 464.073,499.793 477.384,522.903 464.073,546.012 
			467.675,546.012 		"/>
		<polygon fill="#EDEDED" points="474.977,522.916 461.672,499.793 458.082,499.793 471.388,522.903 458.082,546.012 
			461.672,546.012 		"/>
		<polygon fill="#EDEDED" points="432.035,551.146 458.708,551.144 460.502,548.018 433.837,548.043 420.436,524.983 
			418.646,528.108 		"/>
		<polygon fill="#EDEDED" points="435.027,545.947 461.7,545.94 463.498,542.821 436.829,542.844 423.427,519.788 421.632,522.911 
					"/>
		<polygon fill="#EDEDED" points="541.197,477.714 529.565,497.728 502.893,497.728 501.092,494.606 527.763,494.624 
			537.595,477.714 		"/>
		<polygon fill="#EDEDED" points="428.945,556.297 455.62,556.295 457.414,553.169 430.751,553.194 417.347,530.136 
			415.553,533.259 		"/>
		<polygon fill="#EDEDED" points="417.376,530.157 390.701,530.165 388.904,533.284 415.578,533.267 428.97,556.319 
			430.768,553.198 		"/>
		<polygon fill="#EDEDED" points="414.384,535.355 387.713,535.368 385.912,538.485 412.583,538.464 425.987,561.52 
			427.776,558.394 		"/>
		<polygon fill="#EDEDED" points="558.059,403.265 584.73,403.258 586.524,400.139 559.859,400.159 546.458,377.101 
			544.664,380.227 		"/>
		<polygon fill="#EDEDED" points="546.486,377.123 519.811,377.13 518.016,380.249 544.68,380.229 558.082,403.285 559.877,400.163 
					"/>
		<polygon fill="#EDEDED" points="647.658,500.838 645.857,503.945 632.468,480.897 545.33,480.915 532.52,502.921 465.869,502.921 
			464.076,499.806 530.719,499.824 543.53,477.797 634.256,477.797 		"/>
		<polygon fill="#EDEDED" points="644.033,505.769 642.246,508.89 628.843,485.834 544.868,485.857 546.505,482.737 
			630.638,482.729 		"/>
		<g>
			<polygon fill="#EDEDED" points="527.426,581.084 525.632,584.212 539.024,607.246 565.702,607.241 567.495,604.122 
				540.826,604.141 			"/>
			<polygon fill="#EDEDED" points="543.695,598.969 532.205,579.011 541.675,562.569 538.079,562.569 530.332,576.022 
				530.269,575.913 528.47,579.036 541.865,602.069 541.883,602.069 541.914,602.118 545.513,602.118 545.486,602.069 
				568.546,602.065 570.34,598.948 			"/>
		</g>
		<polygon fill="#EDEDED" points="660.218,500.804 646.917,523.931 643.319,523.931 656.628,500.817 643.319,477.708 
			646.917,477.708 		"/>
		<polygon fill="#EDEDED" points="654.216,500.804 614.163,570.151 610.56,570.151 650.627,500.817 637.321,477.708 
			640.917,477.708 		"/>
		<polygon fill="#EDEDED" points="502.893,449.478 476.212,449.473 474.419,446.354 501.085,446.374 514.485,423.32 
			516.286,426.439 		"/>
		<polygon fill="#EDEDED" points="506.063,406.407 506.052,406.407 504.263,403.285 504.276,403.285 		"/>
		<polygon fill="#EDEDED" points="649.318,477.726 662.613,454.603 666.21,454.603 652.903,477.714 666.21,500.823 662.613,500.823 
					"/>
		<polygon fill="#EDEDED" points="662.564,454.651 689.242,454.655 691.035,457.775 664.363,457.75 650.967,480.804 
			649.167,477.683 		"/>
		<path fill="#EDEDED" d="M879.418,395.802l-1.7-2.947H850.91l-13.426,23.222l1.705,2.952l13.405-23.225L879.418,395.802z
			 M826.751,442.021l-1.797-3.124l-26.635-0.005l-0.012-0.019l-0.012,0.019h-0.013l-13.394,23.036l-26.652-0.022l1.798,3.122
			l26.636,0.004l0.011,0.02l0.013-0.02h0.014l13.393-23.034L826.751,442.021z M753.98,408.624l-13.297,23.029l13.297,23.092h3.599
			l-0.044-0.069l23.098,0.005l13.39-23.039l-1.794-3.121l-13.401,23.059l-23.09-0.022l-11.466-19.923l17.842-30.873l7.023-12.084
			l26.671,0.022l-1.8-3.117l-23.084-0.07l0.007-0.01h-3.692l-13.299,23.109l0.004,0.002l-0.008,0.011H753.98z M751.577,454.745
			l-13.307-23.111l13.307-23.106h-3.599l-13.295,23.126l13.295,23.092H751.577z M923.571,367.701l-13.407-23.229l13.407-23.229
			h-3.404l-13.402,23.248l13.402,23.211H923.571z M801.169,490.239l26.664-0.018l13.395-23.035l-1.795-3.121l-13.398,23.057
			l-23.071-0.021l-11.488-19.947l11.596-19.956l26.673,0.022l-1.799-3.119l-26.775-0.075l-13.291,23.103l0.001,0.008l-0.008,0.011
			L801.169,490.239z M929.427,321.242h-3.402l-13.401,23.248l13.401,23.211h3.402l-13.408-23.229L929.427,321.242z M807.236,540.659
			l-26.672-0.016l1.795,3.117l26.681,0.009l13.391-23.042l-1.792-3.119L807.236,540.659z M845.699,474.379l-13.391,23.042
			l1.796,3.119l13.4-23.057l53.344,0.022l-1.794-3.12L845.699,474.379z M842.425,469.267h-0.064l-13.394,23.035l0.009,0.02
			l-26.618-0.021l1.79,3.119h0.126l11.578,20.109l-11.467,19.915l-23.065,0.021l-11.58-19.933l5.527-9.597h0.076l1.792-3.114h-0.071
			l1.197-2.085h0.043l1.794-3.12h-0.038l0.038-0.063h-3.6l-0.038,0.067l-23.028,0.019l-13.398-23.057l-1.801,3.119l13.394,23.045
			l23.043-0.004l-1.2,2.079l-23.002,0.02l-13.4-23.056l-1.792,3.119l13.391,23.038l23.01-0.007l-3.736,6.495l-0.016-0.025
			l-1.794,3.127l0.013,0.021l-2.941,5.111l-23.077-0.008l-13.442,23.049l13.042,23.236l3.603,0.037l-13.028-23.199l11.76-20.012
			l22.927,0.015l11.515,19.988h3.6l-11.512-19.985h0.012l-1.8-3.121h-0.01l-0.003-0.008l1.16-2.007l9.964,17.148l1.608,2.789
			l23.056,0.003l-0.031,0.051h3.604l0.029-0.048h0.021l13.395-23.04l-1.8-3.117l-0.063,0.108l-9.853-17.124l22.888,0.002h0.062
			l13.391-23.031l-0.007-0.021l79.859,0.025l-1.797-3.121L842.425,469.267z M737.828,520.698l-3.602-0.037l-13.547,22.982
			l13.053,23.23l3.596,0.037l-13.059-23.248L737.828,520.698z M705.628,431.513l-13.297,23.121l13.297,23.094h3.602l-13.309-23.107
			l13.309-23.107H705.628z M795.243,433.753l-13.425,23.026l-26.672-0.026l1.8,3.124l26.675,0.005l13.368-23.153h26.791
			l13.427-23.222l-0.07-0.125l12.927-22.387l26.827-0.01l-0.02-0.016h26.689l13.432-23.234l-0.01-0.02l0.01-0.012L903.56,344.47
			h-26.806l-0.011,0.021l-1.684,2.978h3.404l-0.02-0.053h23.431l11.724,20.301l-11.724,20.295H875.06l0.019,0.032h-26.7
			l-13.428,23.234l0.073,0.112l-12.935,22.395L795.243,433.753z M662.556,454.674l-1.801,3.124l26.68-0.022l11.633,20.021h3.614
			l-13.444-23.123H662.556z"/>
		<polygon fill="#EDEDED" points="305.937,462.616 292.634,439.497 289.031,439.497 302.341,462.604 289.031,485.712 
			292.634,485.712 		"/>
		<polygon fill="#EDEDED" points="307.458,460.505 334.134,460.5 335.928,457.38 309.259,457.403 295.858,434.345 294.07,437.47 		
			"/>
		<polygon fill="#EDEDED" points="335.565,457.38 308.917,457.4 295.525,434.364 295.513,434.364 295.5,434.345 295.488,434.364 
			268.853,434.369 267.056,437.491 293.707,437.47 307.102,460.505 307.114,460.505 307.127,460.524 307.138,460.505 333.773,460.5 
					"/>
		<polygon fill="#EDEDED" points="292.539,439.563 265.863,439.572 264.068,442.692 290.738,442.669 304.138,465.726 
			305.931,462.599 		"/>
		<polygon fill="#EDEDED" points="361.297,315.112 387.967,315.131 386.175,312.014 359.496,312.005 346.107,335.04 347.9,338.166 
					"/>
		<polygon fill="#EDEDED" points="321.031,378.29 334.427,355.232 336.226,358.353 322.832,381.392 269.48,381.391 267.686,378.269 
					"/>
		<polygon fill="#EDEDED" points="246.262,386.503 326.111,386.509 326.17,386.509 339.57,363.468 339.558,363.452 366.178,363.472 
			364.387,360.353 364.261,360.353 352.682,340.245 364.147,320.329 387.214,320.305 398.794,340.243 393.267,349.839 
			393.193,349.839 391.399,352.956 391.472,352.956 390.275,355.034 390.23,355.034 388.438,358.153 388.476,358.153 
			388.438,358.222 392.037,358.222 392.075,358.153 415.107,358.133 428.504,381.19 430.3,378.069 416.912,355.032 393.866,355.034 
			395.066,352.954 418.065,352.933 431.468,375.988 433.258,372.868 419.866,349.83 396.857,349.839 400.597,343.341 
			400.612,343.366 402.406,340.243 402.389,340.216 405.333,335.106 428.412,335.116 441.854,312.069 428.812,288.832 
			425.208,288.796 438.238,311.995 426.475,332.007 403.55,331.993 392.037,312.005 388.438,312.005 399.948,331.988 
			399.94,331.988 401.734,335.106 401.747,335.106 401.749,335.116 400.585,337.127 390.621,319.975 389.019,317.188 
			365.96,317.183 365.992,317.138 362.386,317.138 362.361,317.183 362.341,317.183 348.943,340.216 350.746,343.336 
			350.806,343.229 360.658,360.353 337.771,360.351 337.708,360.351 324.317,383.386 324.326,383.405 244.466,383.377 		"/>
		<polygon fill="#EDEDED" points="430.709,335.074 434.306,335.112 447.855,312.13 434.802,288.899 431.207,288.858 
			444.264,312.109 		"/>
		<polygon fill="#EDEDED" points="211.971,480.495 225.271,503.62 228.873,503.62 215.557,480.515 		"/>
		<polygon fill="#EDEDED" points="223.732,506.733 220.126,506.733 207.908,485.72 116.174,485.741 117.973,482.618 
			209.714,482.618 		"/>
		<polygon fill="#EDEDED" points="264.068,482.616 290.744,482.624 292.539,485.743 265.87,485.72 252.47,508.778 250.674,505.655 
					"/>
		<polygon fill="#EDEDED" points="250.674,505.737 263.97,482.616 267.576,482.616 254.264,505.724 267.576,528.831 263.97,528.831 
					"/>
		<polygon fill="#EDEDED" points="253.678,506.741 227,506.737 225.205,503.616 251.871,503.636 265.271,480.582 267.068,483.702 		
			"/>
		<polygon fill="#EDEDED" points="267.068,483.616 253.767,506.741 250.167,506.741 263.479,483.636 250.167,460.526 
			253.767,460.526 		"/>
		<polygon fill="#EDEDED" points="504.918,440.025 500.072,448.462 500.061,448.462 		"/>
		<path fill="#EDEDED" d="M333.502,409.149l13.307,23.109l-11.472,19.92l-23.085,0.021l-13.399-23.049l-1.797,3.115l13.391,23.037
			h26.651l13.3-23.029l-13.3-23.125H333.502z M342.501,368.651l23.067,0.021l11.492,19.949l-11.596,19.951l-26.676-0.021
			l1.797,3.116l26.779,0.078l13.293-23.104l-0.004-0.005l0.008-0.01l-13.297-23.098l-26.663,0.016l-13.396,23.043l1.794,3.117
			L342.501,368.651z M410.292,393.866l-1.789-3.121l-26.638-0.004l-0.013-0.021l-0.013,0.021h-0.015l-13.389,23.031l-26.652-0.02
			l1.796,3.12l26.633,0.009l0.013,0.018l0.01-0.018h0.016l13.393-23.037L410.292,393.866z M551.387,403.267h0.026l1.209,2.097
			l-11.524,20.001l-21.968-0.01l-1.78,3.096l25.677,0.032l-0.061-0.104l13.248-22.999l-13.303-23.123h-3.598l0.036,0.069
			l-23.209,0.008l-1.802,3.119l26.676-0.029L551.387,403.267z M552.676,451.574l3.589,0.021l-11.869-20.637l-1.812,3.113
			L552.676,451.574z M481.792,400.212l-13.311-23.111l13.311-23.108h-3.604l-13.298,23.124l13.298,23.096H481.792z M386.716,398.997
			l26.668,0.02l-1.794-3.119l-26.677-0.006l-13.387,23.035l1.786,3.125L386.716,398.997z M543.288,507.502l13.31,23.11
			L545.1,550.579l-23.073,0.02l-13.4-23.059l-1.793,3.122l13.394,23.04l23.073-0.005l-0.013,0.025h3.605l13.298-23.096
			l-13.298-23.125H543.288z M505.638,532.745l-1.798,3.119l13.395,23.038l26.679-0.004l1.789-3.117l-26.665,0.019L505.638,532.745z
			 M592.305,423.32l-11.497,19.96l-23.135,0.029l-10.236-17.588l-1.8,3.114l10.223,17.571h23.146l-0.01,0.021h3.601l13.301-23.092
			L592.305,423.32z M464.71,381.173h0.008l-1.793-3.122h-0.015v-0.004h-3.61l0.007,0.003l-23.059-0.003l-13.396,23.039l1.796,3.118
			l13.401-23.057l23.056,0.021l11.507,19.986L459.3,424.26h3.61l13.296-23.121L464.71,381.173z M504.918,440.025l-4.847,8.437
			h-0.011v0.012l13.296,23.091h3.605l-13.313-23.103h0.013l8.439-14.669l4.861-8.438v-0.014l-10.899-18.934h-0.011l-1.789-3.122
			h-3.6l-23.061-0.009l-13.4,23.047l1.794,3.112l13.404-23.05l23.053,0.021l10.916,18.947h-0.013L504.918,440.025z M416.958,401.026
			l13.31,23.112l-13.31,23.108h3.6l13.297-23.125l-13.297-23.096H416.958z M414.558,447.149l13.294-23.027l-13.294-23.096h-3.603
			l0.043,0.069l-23.096-0.003l-13.389,23.037l1.792,3.119l13.401-23.056l23.09,0.024l11.468,19.921l-17.845,30.874l-7.021,12.082
			l-26.67-0.021l1.794,3.117l23.088,0.067l-0.005,0.015h3.691l13.295-23.111l-0.003-0.004l0.008-0.008H414.558z"/>
		<polygon fill="#EDEDED" points="943.684,280.956 916.89,280.956 903.56,304.019 876.754,304.019 876.744,303.994 865.052,324.243 
			875.539,342.394 873.839,345.349 861.654,324.252 875.06,301.009 878.464,301.009 878.433,301.069 901.875,301.069 
			915.183,278.021 915.171,278.011 915.194,278.011 915.286,277.836 915.388,278.011 938.416,278.011 926.725,257.741 
			940.126,234.509 943.533,234.509 930.119,257.731 941.836,278.011 941.998,278.011 		"/>
	</g>
</g>
</svg>
