<?xml version="1.0" encoding="utf-8"?>
<!-- Generator: Adobe Illustrator 16.0.4, SVG Export Plug-In . SVG Version: 6.00 Build 0)  -->
<!DOCTYPE svg PUBLIC "-//W3C//DTD SVG 1.1//EN" "http://www.w3.org/Graphics/SVG/1.1/DTD/svg11.dtd">
<svg version="1.1" id="Layer_1" xmlns="http://www.w3.org/2000/svg" xmlns:xlink="http://www.w3.org/1999/xlink" x="0px" y="0px"
	 width="966px" height="841.89px" viewBox="0 0 966 841.89" enable-background="new 0 0 966 841.89" xml:space="preserve">
<g>
	<polygon fill="#E68E84" points="470.177,364.668 471.952,367.729 499.812,367.729 513.741,343.634 513.764,343.634 
		513.749,343.609 513.764,343.588 511.996,340.523 511.98,340.547 499.827,319.496 513.764,295.352 510.221,295.352 
		496.294,319.507 510.209,343.609 498.057,364.668 	"/>
	<polygon fill="#E68E84" points="590.024,274.51 593.567,274.51 579.622,250.367 593.567,226.23 590.024,226.23 576.095,250.385 	
		"/>
	<polygon fill="#E68E84" points="366.915,571.734 352.835,595.613 349.095,595.58 363.184,571.705 349.616,547.541 353.354,547.582 
			"/>
	<polygon fill="#E68E84" points="332.527,407.13 381.873,407.109 380.002,410.352 330.655,410.362 316.732,386.418 318.603,383.172 
			"/>
	<polygon fill="#E68E84" points="740.481,350.188 754.3,374.223 758.046,374.223 744.215,350.202 758.046,326.184 754.3,326.184 	
		"/>
	<polygon fill="#E68E84" points="746.719,350.188 760.538,374.223 764.277,374.223 750.445,350.202 764.277,326.184 
		760.538,326.184 	"/>
	<polygon fill="#E68E84" points="770.118,257.656 783.942,281.689 787.687,281.689 773.854,257.676 787.687,233.656 
		783.942,233.656 	"/>
	<polygon fill="#E68E84" points="676.054,424.31 689.877,448.345 693.624,448.345 679.782,424.326 693.624,400.309 689.877,400.309 
			"/>
	<polygon fill="#E68E84" points="791.35,320.846 763.62,320.85 761.757,324.092 789.469,324.067 803.403,348.031 805.259,344.79 	
		"/>
	<polygon fill="#E68E84" points="758.093,278.377 785.822,278.383 787.687,281.625 759.974,281.601 746.041,305.564 
		744.177,302.318 	"/>
	<polygon fill="#E68E84" points="788.239,326.251 760.515,326.255 758.646,329.502 786.364,329.476 800.292,353.438 
		802.159,350.193 	"/>
	<polygon fill="#E68E84" points="755.019,272.972 782.747,272.976 784.608,276.22 756.888,276.199 742.964,300.158 741.098,296.916 
			"/>
	<polygon fill="#E68E84" points="703.806,376.364 731.534,376.368 733.397,379.612 705.676,379.589 691.749,403.553 
		689.881,400.309 	"/>
	<polygon fill="#E68E84" points="794.556,315.493 766.832,315.494 764.968,318.74 792.68,318.718 806.612,342.682 808.484,339.435 	
		"/>
	<polygon fill="#E68E84" points="806.585,342.66 834.305,342.652 836.169,339.407 808.456,339.429 794.526,315.473 792.659,318.714 
			"/>
	<polygon fill="#E68E84" points="950.885,283.708 936.805,259.826 933.063,259.863 947.155,283.734 933.581,307.857 
		937.328,307.857 	"/>
	<polygon fill="#E68E84" points="797.626,447.342 769.898,447.344 768.036,450.593 795.743,450.566 809.679,474.528 
		811.539,471.287 	"/>
	<polygon fill="#E68E84" points="674.7,426.515 646.977,426.516 645.108,429.762 672.823,429.739 688.625,456.941 690.48,453.703 	
		"/>
	<polygon fill="#E68E84" points="690.54,394.899 688.677,398.141 630.081,398.141 615.425,372.932 619.172,372.932 631.946,394.921 
			"/>
	<polygon fill="#E68E84" points="817.763,233.656 790.034,233.664 788.174,236.903 815.894,236.885 829.817,260.846 
		831.681,257.601 	"/>
	<polygon fill="#E68E84" points="700.726,370.961 756.183,370.966 758.046,374.208 702.601,374.185 688.673,398.149 
		686.811,394.906 	"/>
	<g>
		<polygon fill="#E68E84" points="813.319,289.311 813.331,289.289 809.589,289.289 795.769,313.293 795.771,313.305 
			795.769,313.312 796.358,314.318 809.589,337.326 813.331,337.326 813.292,337.252 837.412,337.244 839.285,334.005 
			811.56,334.026 799.501,313.293 811.45,292.555 835.427,292.533 849.353,316.496 851.226,313.252 837.302,289.307 		"/>
		<polygon fill="#E68E84" points="854.32,307.862 854.329,307.846 840.41,283.904 840.347,283.904 816.559,283.908 826.802,266.11 
			826.865,266.224 828.731,262.979 814.807,239.037 814.782,239.037 814.759,238.99 811.013,238.99 811.044,239.037 
			787.085,239.044 785.438,241.904 773.166,263.006 775.037,266.252 788.958,242.283 812.933,242.312 824.849,263.01 
			812.813,283.908 812.683,283.908 810.817,287.148 838.485,287.129 838.482,287.146 852.397,311.09 852.466,311.09 
			935.455,311.088 937.322,307.841 		"/>
	</g>
	<polygon fill="#E68E84" points="572.804,373.165 586.62,349.129 590.366,349.129 576.534,373.152 590.366,397.168 586.62,397.168 	
		"/>
	<polygon fill="#E68E84" points="579.039,373.165 620.672,301.092 624.409,301.092 582.77,373.152 596.599,397.168 592.86,397.168 	
		"/>
	<polygon fill="#E68E84" points="626.841,301.092 654.573,301.101 656.432,304.346 628.72,304.324 614.792,328.279 612.928,325.039 
			"/>
	<polygon fill="#E68E84" points="730.202,426.513 757.927,426.521 759.784,429.763 732.073,429.735 718.145,453.703 
		716.281,450.459 	"/>
	<polygon fill="#E68E84" points="716.281,450.543 730.101,426.513 733.845,426.513 720.012,450.529 733.845,474.547 
		730.101,474.547 	"/>
	<polygon fill="#E68E84" points="757.815,474.531 730.086,474.519 728.223,471.281 755.943,471.305 769.87,447.342 771.733,450.584 
			"/>
	<polygon fill="#E68E84" points="719.405,451.586 691.674,451.581 689.811,448.337 717.526,448.36 731.454,424.4 733.318,427.639 	
		"/>
	<polygon fill="#E68E84" points="733.318,427.553 719.497,451.586 715.755,451.586 729.587,427.57 715.755,403.553 719.497,403.553 
			"/>
	<polygon fill="#E68E84" points="584.13,397.153 570.315,421.187 566.571,421.187 580.401,397.166 566.571,373.15 570.315,373.15 	
		"/>
	<polygon fill="#E68E84" points="570.365,421.139 542.642,421.13 540.774,417.891 568.487,417.912 582.415,393.954 584.287,397.195 
			"/>
	<polygon fill="#E68E84" points="542.642,421.115 570.374,421.106 572.241,417.862 544.513,417.891 530.589,393.927 
		528.722,397.168 	"/>
	<polygon fill="#E68E84" points="609.585,372.935 623.579,397.168 609.585,421.413 613.136,421.413 627.128,397.184 
		613.136,372.935 	"/>
	<polygon fill="#E68E84" points="603.472,372.935 617.468,397.168 603.472,421.413 607.027,421.413 621.011,397.184 
		607.027,372.935 	"/>
	<polygon fill="#E68E84" points="597.36,372.935 611.36,397.168 597.36,421.413 600.913,421.413 614.903,397.184 600.913,372.935 	
		"/>
	<polygon fill="#E68E84" points="591.252,372.935 605.247,397.168 591.252,421.413 594.806,421.413 608.795,397.184 
		594.806,372.935 	"/>
	<polygon fill="#E68E84" points="585.147,372.935 599.136,397.168 585.147,421.413 588.69,421.413 602.687,397.184 588.69,372.935 	
		"/>
	<polygon fill="#E68E84" points="106.721,525.99 92.897,501.957 89.155,501.957 102.992,525.976 89.155,549.994 92.897,549.994 	"/>
	<polygon fill="#E68E84" points="100.485,525.99 86.662,501.957 82.926,501.957 96.759,525.976 82.926,549.994 86.662,549.994 	"/>
	<polygon fill="#E68E84" points="55.858,555.331 83.581,555.328 85.445,552.08 57.729,552.104 43.801,528.137 41.943,531.387 	"/>
	<polygon fill="#E68E84" points="58.966,549.928 86.687,549.922 88.558,546.678 60.841,546.701 46.909,522.739 45.043,525.984 	"/>
	<polygon fill="#E68E84" points="169.312,479.009 157.224,499.811 129.504,499.811 127.632,496.565 155.349,496.586 
		165.571,479.009 	"/>
	<polygon fill="#E68E84" points="52.644,560.685 80.37,560.681 82.232,557.434 54.521,557.459 40.589,533.492 38.726,536.74 	"/>
	<polygon fill="#E68E84" points="40.621,533.516 12.896,533.524 11.029,536.766 38.751,536.746 52.674,560.707 54.541,557.464 	"/>
	<polygon fill="#E68E84" points="37.514,538.92 9.792,538.932 7.917,542.171 35.638,542.15 49.568,566.111 51.431,562.864 	"/>
	<polygon fill="#E68E84" points="279.964,503.042 278.093,506.274 264.174,482.318 173.61,482.338 160.296,505.209 91.021,505.209 
		89.16,501.969 158.425,501.989 171.738,479.096 266.034,479.096 	"/>
	<polygon fill="#E68E84" points="276.197,508.169 274.335,511.41 260.408,487.451 173.131,487.473 174.829,484.23 262.272,484.222 	
		"/>
	<g>
		<polygon fill="#E68E84" points="155.001,586.447 153.135,589.696 167.055,613.64 194.782,613.632 196.646,610.392 
			168.932,610.409 		"/>
		<polygon fill="#E68E84" points="171.911,605.033 159.969,584.29 169.811,567.202 166.072,567.202 158.022,581.185 157.954,581.07 
			156.087,584.316 170.008,608.259 170.026,608.259 170.059,608.307 173.803,608.307 173.771,608.259 197.74,608.253 
			199.604,605.014 		"/>
	</g>
	<polygon fill="#E68E84" points="293.016,503.009 279.192,527.045 275.452,527.045 289.287,503.023 275.452,479.004 
		279.192,479.004 	"/>
	<polygon fill="#E68E84" points="286.777,503.009 245.149,575.082 241.406,575.082 283.05,503.023 269.219,479.004 272.958,479.004 
			"/>
	<polygon fill="#E68E84" points="281.687,479.023 295.505,454.988 299.244,454.988 285.412,479.009 299.244,503.027 
		295.505,503.027 	"/>
	<polygon fill="#E68E84" points="295.453,455.037 323.183,455.041 325.047,458.285 297.326,458.261 283.402,482.221 281.53,478.977 
			"/>
	<path fill="#E68E84" d="M520.841,393.873l-1.766-3.062H491.21l-13.952,24.134l1.771,3.069l13.934-24.137L520.841,393.873z
		 M466.103,441.913l-1.866-3.247l-27.685-0.006l-0.013-0.021l-0.012,0.021h-0.011l-13.924,23.942l-27.698-0.023l1.868,3.244
		l27.682,0.005l0.012,0.02l0.013-0.02h0.018l13.916-23.939L466.103,441.913z M390.468,407.2l-13.82,23.937l13.82,24h3.738
		l-0.042-0.073l24.005,0.009l13.918-23.949l-1.868-3.239l-13.927,23.964l-23.998-0.024l-11.917-20.705l18.542-32.089l7.303-12.562
		l27.721,0.026l-1.872-3.241l-23.993-0.072l0.007-0.012h-3.838l-13.819,24.019l0.002,0.004l-0.006,0.01H390.468z M387.972,455.137
		l-13.834-24.019l13.834-24.019h-3.742l-13.818,24.037l13.818,24H387.972z M566.731,364.668l-13.938-24.145l13.938-24.143h-3.539
		l-13.928,24.162l13.928,24.125H566.731z M439.516,492.027l27.714-0.017l13.919-23.944l-1.862-3.244l-13.931,23.967l-23.976-0.023
		l-11.943-20.732l12.055-20.743l27.723,0.026l-1.87-3.242l-27.828-0.079l-13.816,24.012l0.005,0.008l-0.012,0.013L439.516,492.027z
		 M572.819,316.381h-3.537l-13.931,24.162l13.931,24.125h3.537l-13.936-24.145L572.819,316.381z M445.819,544.432l-27.723-0.017
		l1.869,3.241l27.729,0.006l13.916-23.945l-1.859-3.243L445.819,544.432z M485.795,475.544l-13.916,23.948l1.868,3.241
		l13.925-23.962l55.444,0.021l-1.867-3.244L485.795,475.544z M482.393,470.229h-0.068l-13.92,23.942l0.014,0.021l-27.669-0.021
		l1.861,3.241h0.128l12.038,20.899l-11.917,20.699l-23.975,0.021l-12.037-20.715l5.743-9.974h0.082l1.864-3.241h-0.077l1.243-2.165
		h0.046l1.862-3.243h-0.036l0.036-0.064h-3.737l-0.042,0.069l-23.934,0.02l-13.928-23.961l-1.866,3.24l13.915,23.948l23.952-0.001
		l-1.245,2.16l-23.909,0.02l-13.928-23.96l-1.863,3.239l13.919,23.944l23.913-0.005l-3.881,6.75l-0.017-0.026l-1.866,3.25
		l0.014,0.021l-3.056,5.314l-23.987-0.009l-13.972,23.955l13.559,24.15l3.741,0.038l-13.542-24.114l12.225-20.798l23.829,0.016
		l11.969,20.773h3.737l-11.962-20.771h0.013l-1.87-3.24h-0.012v-0.009l1.203-2.086l10.359,17.82l1.668,2.899l23.961,0.002
		l-0.028,0.054h3.742l0.031-0.05h0.021l13.925-23.945l-1.871-3.24l-0.068,0.111l-10.238-17.796l23.787,0.002h0.064l13.92-23.94
		l-0.009-0.018l83.003,0.023l-1.869-3.244L482.393,470.229z M373.681,523.686l-3.743-0.039l-14.081,23.886l13.567,24.146
		l3.738,0.039l-13.573-24.166L373.681,523.686z M340.215,430.99l-13.818,24.03l13.818,24.003h3.744l-13.833-24.017l13.833-24.017
		H340.215z M433.355,433.318L419.4,457.251l-27.718-0.026l1.868,3.245l27.722,0.006l13.898-24.065h27.845l13.956-24.133
		l-0.075-0.131l13.436-23.267l27.879-0.012l-0.013-0.017h27.734l13.961-24.149l-0.01-0.021l0.01-0.012l-13.961-24.146h-27.859
		l-0.012,0.021l-1.748,3.094h3.536l-0.021-0.053h24.354l12.183,21.097l-12.183,21.096h-27.869l0.021,0.032h-27.753l-13.955,24.15
		l0.075,0.115l-13.442,23.277L433.355,433.318z M295.447,455.062l-1.87,3.245l27.728-0.022l12.093,20.811h3.754l-13.973-24.033
		H295.447z"/>
	<path fill="#E68E84" d="M171.484,509.968l13.836,24.021l-11.953,20.751l-23.979,0.021l-13.929-23.964l-1.863,3.243l13.92,23.945
		l23.98-0.006l-0.013,0.026h3.747l13.821-24.003l-13.821-24.036H171.484z M132.354,536.205l-1.865,3.243l13.919,23.944l27.729-0.006
		l1.86-3.239l-27.715,0.019L132.354,536.205z"/>
	<polygon fill="#E68E84" points="587.638,274.51 559.79,274.51 545.933,298.48 518.073,298.48 518.062,298.455 505.911,319.5 
		516.812,338.364 515.044,341.437 502.376,319.508 516.313,295.351 519.85,295.351 519.815,295.414 544.183,295.414 
		558.015,271.458 558.001,271.448 558.026,271.448 558.122,271.265 558.229,271.448 582.159,271.448 570.011,250.382 
		583.938,226.236 587.479,226.236 573.538,250.37 585.716,271.448 585.885,271.448 	"/>
</g>
</svg>
