<?xml version="1.0" encoding="utf-8"?>
<!-- Generator: Adobe Illustrator 16.0.4, SVG Export Plug-In . SVG Version: 6.00 Build 0)  -->
<!DOCTYPE svg PUBLIC "-//W3C//DTD SVG 1.1//EN" "http://www.w3.org/Graphics/SVG/1.1/DTD/svg11.dtd">
<svg version="1.1" id="Layer_1" xmlns="http://www.w3.org/2000/svg" xmlns:xlink="http://www.w3.org/1999/xlink" x="0px" y="0px"
	 width="595.28px" height="841.89px" viewBox="0 0 595.28 841.89" enable-background="new 0 0 595.28 841.89" xml:space="preserve">
<g>
	<polygon fill="#EDEDED" points="238.655,507.573 227.954,525.72 225.113,525.694 235.818,507.552 225.509,489.189 228.348,489.22 	
		"/>
	<polygon fill="#EDEDED" points="212.521,382.486 250.02,382.472 248.598,384.935 211.1,384.942 200.52,366.747 201.941,364.28 	"/>
	<path fill="#EDEDED" d="M355.628,372.413l-1.343-2.327H333.11l-10.604,18.34l1.347,2.332l10.589-18.343L355.628,372.413z
		 M314.029,408.919l-1.419-2.467l-21.037-0.005l-0.009-0.015l-0.009,0.015h-0.011l-10.578,18.194l-21.051-0.018l1.419,2.466
		l21.038,0.003l0.009,0.016l0.011-0.016h0.011L292.98,408.9L314.029,408.919z M256.554,382.54l-10.503,18.189l10.503,18.238h2.841
		l-0.033-0.055l18.243,0.005l10.575-18.197l-1.418-2.464l-10.584,18.211l-18.237-0.018l-9.056-15.734l14.092-24.385l5.547-9.547
		l21.065,0.02l-1.42-2.463l-18.234-0.055l0.007-0.009h-2.917l-10.504,18.252l0.005,0.003l-0.007,0.008H256.554z M254.656,418.968
		l-10.512-18.252l10.512-18.252h-2.843l-10.501,18.266l10.501,18.238H254.656z M390.501,350.219l-10.591-18.348l10.591-18.346
		h-2.689l-10.586,18.36l10.586,18.333H390.501z M293.824,447.002l21.06-0.012l10.58-18.196l-1.417-2.465l-10.583,18.211
		l-18.222-0.017l-9.074-15.755l9.159-15.763l21.066,0.02l-1.422-2.464l-21.147-0.061l-10.497,18.248l0.001,0.006l-0.006,0.009
		L293.824,447.002z M395.126,313.525h-2.688l-10.585,18.36l10.585,18.333h2.688l-10.591-18.348L395.126,313.525z M298.616,486.825
		l-21.066-0.012l1.419,2.462l21.071,0.006l10.576-18.197l-1.414-2.465L298.616,486.825z M328.996,434.476l-10.577,18.199
		l1.419,2.463l10.583-18.209l42.133,0.017l-1.418-2.465L328.996,434.476z M326.41,430.438h-0.052l-10.578,18.194l0.007,0.015
		l-21.024-0.017l1.415,2.464h0.099l9.146,15.882l-9.057,15.73l-18.219,0.016l-9.146-15.742l4.364-7.58h0.061l1.416-2.462h-0.056
		l0.944-1.645h0.035l1.415-2.465h-0.028l0.028-0.05h-2.842l-0.03,0.053l-18.188,0.015l-10.583-18.209l-1.42,2.463l10.576,18.199
		l18.2-0.001l-0.947,1.641l-18.167,0.016l-10.584-18.208l-1.416,2.462l10.575,18.196l18.175-0.005l-2.951,5.13l-0.013-0.02
		l-1.416,2.47l0.01,0.017l-2.323,4.036l-18.228-0.006l-10.617,18.203l10.302,18.354l2.844,0.029l-10.29-18.324l9.29-15.806
		l18.107,0.013l9.095,15.786h2.842l-9.091-15.785h0.009l-1.422-2.464h-0.007l-0.002-0.006l0.916-1.586l7.87,13.544l1.27,2.202
		l18.209,0.004l-0.022,0.039h2.844l0.024-0.038h0.017l10.58-18.195l-1.422-2.464l-0.051,0.085l-7.781-13.523l18.078,0.001h0.048
		l10.577-18.191l-0.006-0.015l63.075,0.019l-1.419-2.465L326.41,430.438z M243.796,471.06l-2.845-0.029l-10.699,18.151
		l10.309,18.349l2.841,0.03l-10.314-18.364L243.796,471.06z M289.144,402.388l-10.604,18.188l-21.063-0.021l1.419,2.467
		l21.068,0.005l10.56-18.289h21.16l10.605-18.34l-0.057-0.1l10.21-17.681l21.188-0.007l-0.014-0.014h21.079l10.608-18.353
		l-0.007-0.015l0.007-0.01l-10.608-18.351h-21.172l-0.009,0.017l-1.329,2.352h2.688l-0.016-0.041h18.507l9.26,16.033l-9.26,16.03
		h-21.179l0.015,0.024h-21.09l-10.604,18.352l0.056,0.088l-10.214,17.69L289.144,402.388z"/>
</g>
</svg>
