<?xml version="1.0" encoding="utf-8"?>
<!-- Generator: Adobe Illustrator 16.0.4, SVG Export Plug-In . SVG Version: 6.00 Build 0)  -->
<!DOCTYPE svg PUBLIC "-//W3C//DTD SVG 1.1//EN" "http://www.w3.org/Graphics/SVG/1.1/DTD/svg11.dtd">
<svg version="1.1" id="Layer_1" xmlns="http://www.w3.org/2000/svg" xmlns:xlink="http://www.w3.org/1999/xlink" x="0px" y="0px"
	 width="1781.911px" height="841.89px" viewBox="0 0 1781.911 841.89" enable-background="new 0 0 1781.911 841.89"
	 xml:space="preserve">
<g>
	<polygon fill="#3AA5B8" points="1704.131,155.993 1693.458,155.993 1677.719,182.834 1641.612,182.834 1625.899,156.196 
		1595.165,156.196 1577.151,125.433 1479.559,125.433 1462.573,154.81 1392.428,154.81 1412.071,121.181 1353.659,121.208 
		1333.092,156.196 1302.358,156.196 1287,182.803 1159.038,182.803 1126.694,238.785 1124.724,238.785 1124.724,238.639 
		1063.378,238.639 1052.705,238.639 1036.966,265.479 1000.86,265.479 985.146,238.842 954.413,238.842 936.398,208.078 
		838.806,208.078 821.821,237.455 751.675,237.455 771.318,203.826 712.907,203.854 692.339,238.842 661.605,238.842 
		646.249,265.448 518.285,265.448 485.941,321.431 415.81,321.431 398.81,350.808 398.795,350.849 366.408,350.765 366.35,350.866 
		247.009,350.866 228.989,382.181 195.841,382.181 188.311,394.999 180.845,394.999 164.304,423.728 180.845,452.491 
		188.26,452.491 204.799,481.13 298.145,481.087 310.365,501.866 381.111,501.696 398.882,532.741 433.524,532.741 448.164,557.968 
		546.524,557.968 564.243,588.583 595.089,588.583 580.301,613.917 644.178,613.804 658.667,588.583 692.539,588.583 710.54,558.05 
		804.891,557.907 839.136,616.774 936.8,616.659 952.112,643.069 993.426,643.31 1006.458,665.661 1052.858,665.675 
		1107.205,665.678 1107.053,665.938 1170.93,665.824 1185.418,640.604 1219.292,640.604 1237.292,610.07 1331.643,609.928 
		1365.889,668.795 1463.553,668.68 1478.864,695.09 1520.178,695.33 1533.209,717.682 1579.61,717.695 1764.163,717.699 
		1764.163,583.033 1764.163,290.659 1764.163,155.993 	"/>
	<polygon fill="#3AA5B8" points="177.892,544.288 180.952,544.288 192.256,524.628 180.952,504.993 177.892,504.993 
		177.926,505.052 158.292,505.049 146.909,524.632 148.436,527.285 159.828,507.688 179.455,507.706 189.208,524.639 	"/>
	<polygon fill="#3AA5B8" points="178.43,500.631 155.75,500.628 144.372,520.213 145.89,522.866 157.288,503.265 179.955,503.283 	
		"/>
	<polygon fill="#3AA5B8" points="143.264,518.487 143.274,518.471 143.289,518.471 154.674,498.888 177.33,498.905 175.803,496.251 
		153.16,496.249 153.15,496.232 153.14,496.249 153.127,496.249 141.739,515.827 119.09,515.81 120.614,518.464 143.254,518.471 	
		"/>
	<polygon fill="#3AA5B8" points="27.812,469.075 39.338,449.552 36.278,449.521 24.762,469.055 35.85,488.808 38.915,488.808 	"/>
	<polygon fill="#3AA5B8" points="251.163,587.059 238.253,609.296 239.774,611.946 252.698,589.696 275.364,589.714 273.838,587.06 
			"/>
	<polygon fill="#3AA5B8" points="296.581,543.231 286.13,561.218 241.256,561.201 229.874,541.618 187.585,541.624 197.354,524.628 
		186.053,504.993 182.989,504.993 194.305,524.639 184.523,541.624 184.516,541.624 182.989,544.274 182.997,544.274 
		182.989,544.288 186.053,544.288 186.062,544.273 228.341,544.257 239.552,563.543 239.729,563.851 239.731,563.851 
		239.735,563.857 239.739,563.851 287.658,563.851 299.646,543.231 	"/>
	<polygon fill="#3AA5B8" points="135.676,431.952 158.348,431.969 156.824,429.318 134.145,429.312 122.76,448.897 124.285,451.552 
			"/>
	<polygon fill="#3AA5B8" points="137.771,514.109 140.832,514.109 151.653,495.29 152.136,494.467 152.131,494.46 152.136,494.45 
		140.832,474.817 137.771,474.817 137.779,474.834 118.165,474.83 106.776,494.418 108.305,497.07 119.697,477.471 139.309,477.487 
		149.081,494.45 139.22,511.409 116.543,511.392 118.072,514.04 137.803,514.048 	"/>
	<polygon fill="#3AA5B8" points="117.196,473.05 139.827,473.066 138.302,470.415 138.194,470.415 128.349,453.321 138.097,436.393 
		157.705,436.369 167.55,453.318 162.853,461.474 162.788,461.474 161.263,464.127 161.324,464.127 160.305,465.896 160.27,465.896 
		158.747,468.549 158.776,468.549 158.747,468.601 161.807,468.601 161.838,468.546 181.413,468.527 192.811,488.128 
		194.334,485.474 182.951,465.891 163.364,465.895 164.382,464.125 183.935,464.11 195.327,483.707 196.852,481.056 
		185.467,461.471 165.907,461.474 169.082,455.954 169.092,455.973 170.621,453.318 170.609,453.299 173.115,448.943 
		161.807,429.312 158.747,429.312 170.062,448.959 169.079,450.666 160.583,436.06 159.24,433.719 139.641,433.714 139.666,433.675 
		136.601,433.675 136.583,433.714 136.562,433.714 125.172,453.298 126.702,455.95 126.754,455.857 135.129,470.415 
		115.674,470.412 115.623,470.412 104.235,489.995 104.244,490.009 36.354,489.991 37.879,492.647 105.759,492.648 105.815,492.648 
		117.199,473.063 	"/>
	<polygon fill="#3AA5B8" points="320.143,563.055 323.206,563.055 334.505,543.423 323.206,523.763 320.143,523.763 
		331.457,543.413 	"/>
	<polygon fill="#3AA5B8" points="292.294,484.47 326.356,543.413 315.044,563.055 318.103,563.055 329.405,543.423 295.354,484.47 	
		"/>
	<polygon fill="#3AA5B8" points="267.624,484.479 266.105,487.132 288.772,487.114 300.165,506.708 301.688,504.059 290.308,484.47 
			"/>
	<polygon fill="#3AA5B8" points="238.804,604.909 238.75,604.909 250.055,585.255 238.749,565.625 238.743,565.625 227.356,546.04 
		204.675,546.043 203.153,548.696 225.825,548.677 236.817,567.591 247.002,585.269 235.685,604.912 216.153,604.928 
		213.427,600.237 206.307,587.854 217.581,568.278 214.52,568.278 203.708,587.057 202.786,587.057 202.786,587.058 
		183.086,587.063 181.567,589.716 204.214,589.693 207.126,594.708 214.06,606.768 204.322,623.678 184.71,623.694 173.319,604.095 
		173.307,604.115 173.295,604.096 150.616,604.095 139.237,623.68 140.755,626.331 152.156,606.731 171.797,606.75 183.179,626.335 
		202.797,626.324 202.786,626.345 205.848,626.345 216.658,607.567 217.581,607.567 217.58,607.566 237.28,607.562 	"/>
	<polygon fill="#3AA5B8" points="369.036,560.403 357.647,580.004 338.041,579.984 328.292,563.054 339.605,543.409 
		336.542,543.409 326.697,560.517 326.645,560.427 325.116,563.078 336.5,582.661 336.519,582.661 336.542,582.702 339.605,582.702 
		339.581,582.66 359.179,582.655 360.343,580.635 370.565,563.055 	"/>
	<polygon fill="#3AA5B8" points="304.423,543.234 301.518,543.234 290.074,563.067 301.518,582.886 304.423,582.886 
		292.973,563.055 	"/>
	<polygon fill="#3AA5B8" points="309.42,543.234 306.513,543.234 295.077,563.067 306.513,582.886 309.42,582.886 297.973,563.055 	
		"/>
	<polygon fill="#3AA5B8" points="314.422,543.234 311.516,543.234 300.072,563.067 311.516,582.886 314.422,582.886 
		302.971,563.055 	"/>
	<polygon fill="#3AA5B8" points="319.417,543.234 316.508,543.234 305.069,563.067 316.508,582.886 319.417,582.886 
		307.969,563.055 	"/>
	<polygon fill="#3AA5B8" points="324.412,543.234 321.512,543.234 310.064,563.067 321.512,582.886 324.412,582.886 
		312.968,563.055 	"/>
</g>
<polygon fill="#FFFFFF" points="801.29,549.659 816.877,576.224 819.135,571.97 806.373,549.745 819.135,527.388 845.184,527.448 
	847.567,523.167 816.85,523.11 "/>
<polygon fill="#FFFFFF" points="640.697,554.892 656.169,581.54 686.617,581.54 702.205,554.892 687.088,528.483 684.419,532.409 
	697.464,554.776 684.476,577.259 658.54,577.259 645.693,554.892 "/>
<polygon fill="#FFFFFF" points="948.965,584.276 933.679,610.862 948.935,637.464 951.478,633.271 938.556,610.923 951.433,588.501 
	"/>
<polygon fill="#FFFFFF" points="951.433,588.501 977.276,588.501 979.743,584.276 948.965,584.276 "/>
<polygon fill="#FFFFFF" points="638.203,556.325 653.548,582.851 648.671,582.97 633.207,556.325 "/>
<polygon fill="#FFFFFF" points="951.433,577.269 948.986,581.503 979.715,581.503 982.226,577.269 "/>
</svg>
