<?xml version="1.0" encoding="utf-8"?>
<!-- Generator: Adobe Illustrator 16.0.4, SVG Export Plug-In . SVG Version: 6.00 Build 0)  -->
<!DOCTYPE svg PUBLIC "-//W3C//DTD SVG 1.1//EN" "http://www.w3.org/Graphics/SVG/1.1/DTD/svg11.dtd">
<svg version="1.1" id="Layer_1" xmlns="http://www.w3.org/2000/svg" xmlns:xlink="http://www.w3.org/1999/xlink" x="0px" y="0px"
	 width="595.28px" height="841.89px" viewBox="0 0 595.28 841.89" enable-background="new 0 0 595.28 841.89" xml:space="preserve">
<g>
	
		<path fill-rule="evenodd" clip-rule="evenodd" fill="none" stroke="#FFFFFF" stroke-linecap="round" stroke-linejoin="round" stroke-miterlimit="10" d="
		M288.821,400.689c-9.868,0-17.868,5.08-17.868,11.348c0,3.181,2.068,6.053,5.389,8.113l0.63,12.783l8.84-9.724
		c0.98,0.106,1.981,0.173,3.01,0.173c9.868,0,17.867-5.08,17.867-11.346C306.688,405.77,298.689,400.689,288.821,400.689z"/>
	
		<path fill-rule="evenodd" clip-rule="evenodd" fill="none" stroke="#FFFFFF" stroke-linecap="round" stroke-linejoin="round" stroke-miterlimit="10" d="
		M326.508,421.483c0-5.812-7.265-10.524-16.225-10.524c-8.961,0-16.225,4.712-16.225,10.524c0,5.813,7.264,10.525,16.225,10.525
		c0.903,0,1.785-0.06,2.649-0.152l6.243,7.747l1.842-10.243C324.378,427.433,326.508,424.623,326.508,421.483z"/>
</g>
</svg>
