<?xml version="1.0" encoding="utf-8"?>
<!-- Generator: Adobe Illustrator 16.0.4, SVG Export Plug-In . SVG Version: 6.00 Build 0)  -->
<!DOCTYPE svg PUBLIC "-//W3C//DTD SVG 1.1//EN" "http://www.w3.org/Graphics/SVG/1.1/DTD/svg11.dtd">
<svg version="1.1" id="Layer_1" xmlns="http://www.w3.org/2000/svg" xmlns:xlink="http://www.w3.org/1999/xlink" x="0px" y="0px"
	 width="595.28px" height="841.89px" viewBox="0 0 595.28 841.89" enable-background="new 0 0 595.28 841.89" xml:space="preserve">
<g>
	<path fill="none" stroke="#FFFFFF" stroke-width="0.5" stroke-miterlimit="10" d="M297.36,400.333
		c2.103,1.232,5.759,3.058,9.801,3.649c1.938,0.283,3.812,0.428,5.565,0.428c0.119,0,0.235-0.001,0.349-0.003
		c-0.062,4.45-0.789,12.907-4.858,20.665c-3.544,6.757-8.229,11.861-10.856,14.433c-2.629-2.572-7.312-7.678-10.856-14.433
		c-4.051-7.721-4.783-16.203-4.853-20.665c0.112,0.002,0.226,0.003,0.343,0.003c1.754,0,3.627-0.145,5.564-0.428
		C291.602,403.391,295.258,401.565,297.36,400.333"/>
	<path fill="none" stroke="#FFFFFF" stroke-width="0.5" stroke-miterlimit="10" d="M297.36,398.326
		c2.317,1.358,6.348,3.37,10.805,4.023c2.137,0.312,4.201,0.472,6.136,0.472c0.131,0,0.259-0.002,0.384-0.003
		c-0.068,4.906-0.869,14.229-5.356,22.782c-3.907,7.448-9.07,13.076-11.968,15.91c-2.899-2.835-8.062-8.464-11.969-15.91
		c-4.466-8.513-5.273-17.863-5.35-22.782c0.124,0.001,0.249,0.003,0.377,0.003c1.935,0,3.999-0.159,6.136-0.472
		C291.012,401.696,295.042,399.685,297.36,398.326"/>
	<path fill="none" stroke="#FFFFFF" stroke-linecap="round" stroke-linejoin="round" stroke-miterlimit="10" d="M297.36,396.578
		c0,0-4.79,3.469-10.26,4.27c-2.052,0.3-3.767,0.395-5.106,0.395c-2.233,0-3.431-0.261-3.431-0.261s-1.201,13.485,5.136,25.563
		c5.567,10.613,13.661,17.259,13.661,17.259s8.094-6.646,13.661-17.259c6.336-12.078,5.136-25.563,5.136-25.563
		s-1.197,0.261-3.431,0.261c-1.341,0-3.055-0.095-5.106-0.395C302.15,400.047,297.36,396.578,297.36,396.578L297.36,396.578z"/>
</g>
</svg>
