<?xml version="1.0" encoding="utf-8"?>
<!-- Generator: Adobe Illustrator 16.0.4, SVG Export Plug-In . SVG Version: 6.00 Build 0)  -->
<!DOCTYPE svg PUBLIC "-//W3C//DTD SVG 1.1//EN" "http://www.w3.org/Graphics/SVG/1.1/DTD/svg11.dtd">
<svg version="1.1" id="Layer_1" xmlns="http://www.w3.org/2000/svg" xmlns:xlink="http://www.w3.org/1999/xlink" x="0px" y="0px"
	 width="595.28px" height="841.89px" viewBox="0 0 595.28 841.89" enable-background="new 0 0 595.28 841.89" xml:space="preserve">
<g>
	<g>
		<path fill="none" stroke="#FFFFFF" stroke-linecap="round" stroke-miterlimit="10" d="M298.726,415.036v-4.224l-3.652-0.73
			c-0.189-0.631-0.439-1.234-0.746-1.804l2.065-3.099l-2.987-2.987l-3.099,2.065c-0.569-0.307-1.173-0.557-1.804-0.745l-0.73-3.653
			h-4.224l-0.73,3.653c-0.63,0.188-1.234,0.438-1.803,0.745l-3.1-2.065l-2.986,2.987l2.064,3.099
			c-0.306,0.569-0.556,1.173-0.746,1.804l-3.652,0.73v4.224l3.652,0.73c0.19,0.63,0.44,1.234,0.746,1.804l-2.064,3.099l2.986,2.987
			l3.1-2.065c0.568,0.306,1.173,0.556,1.803,0.745l0.73,3.653h4.224l0.73-3.653c0.631-0.189,1.234-0.439,1.804-0.745l3.099,2.065
			l2.987-2.987l-2.065-3.099c0.307-0.569,0.557-1.174,0.746-1.804L298.726,415.036z"/>
		<circle fill="none" stroke="#FFFFFF" stroke-width="0.5" stroke-miterlimit="10" cx="285.661" cy="412.924" r="6.667"/>
		<circle fill="none" stroke="#FFFFFF" stroke-linecap="round" stroke-miterlimit="10" cx="285.661" cy="412.924" r="4.23"/>
	</g>
	<g>
		<path fill="none" stroke="#FFFFFF" stroke-linecap="round" stroke-miterlimit="10" d="M321.315,428.907v-4.224l-3.652-0.73
			c-0.19-0.631-0.44-1.234-0.746-1.804l2.065-3.099l-2.987-2.987l-3.099,2.065c-0.569-0.307-1.174-0.557-1.804-0.745l-0.73-3.653
			h-4.224l-0.73,3.653c-0.631,0.188-1.234,0.438-1.804,0.745l-3.099-2.065l-2.987,2.987l2.065,3.099
			c-0.307,0.569-0.557,1.173-0.746,1.804l-3.652,0.73v4.224l3.652,0.73c0.189,0.63,0.439,1.234,0.746,1.804l-2.065,3.099
			l2.987,2.987l3.099-2.065c0.569,0.306,1.173,0.556,1.804,0.745l0.73,3.653h4.224l0.73-3.653c0.63-0.189,1.234-0.439,1.804-0.745
			l3.099,2.065l2.987-2.987l-2.065-3.099c0.306-0.569,0.556-1.174,0.746-1.804L321.315,428.907z"/>
		<circle fill="none" stroke="#FFFFFF" stroke-width="0.5" stroke-miterlimit="10" cx="308.25" cy="426.795" r="6.667"/>
		<circle fill="none" stroke="#FFFFFF" stroke-linecap="round" stroke-miterlimit="10" cx="308.25" cy="426.795" r="4.23"/>
	</g>
</g>
</svg>
