<?xml version="1.0" encoding="utf-8"?>
<!-- Generator: Adobe Illustrator 16.0.4, SVG Export Plug-In . SVG Version: 6.00 Build 0)  -->
<!DOCTYPE svg PUBLIC "-//W3C//DTD SVG 1.1//EN" "http://www.w3.org/Graphics/SVG/1.1/DTD/svg11.dtd">
<svg version="1.1" id="Layer_1" xmlns="http://www.w3.org/2000/svg" xmlns:xlink="http://www.w3.org/1999/xlink" x="0px" y="0px"
	 width="595.28px" height="841.89px" viewBox="0 0 595.28 841.89" enable-background="new 0 0 595.28 841.89" xml:space="preserve">
<g>
	<g>
		<path fill="none" stroke="#FFFFFF" stroke-linecap="round" stroke-linejoin="round" stroke-miterlimit="10" d="M311.955,411.966
			c0,8.688-7.044,24.529-15.734,24.529c-8.691,0-15.735-15.841-15.735-24.529c0-8.69,7.044-15.735,15.735-15.735
			C304.911,396.23,311.955,403.275,311.955,411.966z"/>
		<path fill="none" stroke="#FFFFFF" stroke-linecap="round" stroke-linejoin="round" stroke-miterlimit="10" d="M305.717,429.987
			c0,0,0,5.022,0,6.695c0,1.671,1.228,4.018,3.458,4.574"/>
		<path fill="none" stroke="#FFFFFF" stroke-linecap="round" stroke-linejoin="round" stroke-miterlimit="10" d="M282.846,441.257
			c2.011,0,4.796-3.013,4.796-4.91c0-1.896,0-4.905,0-4.905"/>
		<g>
			<path fill="none" stroke="#FFFFFF" stroke-linecap="round" stroke-linejoin="round" stroke-miterlimit="10" d="M304.696,413.873
				c0,0-3.018,0.456-4.186,0.373c-1.172-0.084-3.756,1.003-3.756,2.92c0,1.922,0.783,5.449,0.783,5.449l-1.193,0.82"/>
			<path fill="none" stroke="#FFFFFF" stroke-linecap="round" stroke-linejoin="round" stroke-miterlimit="10" d="M293.16,415.583
				c0-0.418-1.082-1.503-1.669-1.503c-0.585,0-4.415-0.869-4.415-0.869"/>
			<path fill="none" stroke="#FFFFFF" stroke-linecap="round" stroke-linejoin="round" stroke-miterlimit="10" d="M299.188,428.373
				c-1.518,1.518-4.553,1.518-6.071,0"/>
		</g>
		<path fill="none" stroke="#FFFFFF" stroke-linecap="round" stroke-linejoin="round" stroke-miterlimit="10" d="M275.661,442.793
			l6.158-0.94c0,0,7.095,3.55,15.34,3.55c8.244,0,12.523-4.174,12.523-4.174l7.301,2.502"/>
		<path fill="none" stroke="#FFFFFF" stroke-linecap="round" stroke-linejoin="round" stroke-miterlimit="10" d="M281.098,407.441
			c0.261,0.017,2.644-0.014,5.692-0.885c2.656-0.76,6.326-3.717,6.326-3.717s3.082,3.62,6.289,4.733
			c3.415,1.187,6.467,1.784,8.766,4.929c2.041,2.789,2.533,4.66,2.161,7.707"/>
		<path fill="none" stroke="#FFFFFF" stroke-linecap="round" stroke-linejoin="round" stroke-miterlimit="10" d="M310.92,422.966
			c1.41,1.487,4.219,4.826,5.601,8.896c1.897,5.557,1.776,8.092,1.776,8.092s-6.969-2.687-9.307-5.177
			c-2.23-2.383-2.67-5.419-2.67-5.419"/>
		<path fill="none" stroke="#FFFFFF" stroke-linecap="round" stroke-linejoin="round" stroke-miterlimit="10" d="M293.116,402.84
			c0,0-0.506-6.53,6.325-6.404"/>
	</g>
	<path fill="none" stroke="#FFFFFF" stroke-linecap="round" stroke-linejoin="round" stroke-miterlimit="10" d="M299.501,417.854
		c0.299-0.027,1.082-0.866,2.245-0.836c1.162,0.033,2.249,0.387,2.249,0.387"/>
	<path fill="none" stroke="#FFFFFF" stroke-linecap="round" stroke-linejoin="round" stroke-miterlimit="10" d="M302.558,417.504
		c0,0-0.047,0.817-0.716,0.758c-0.668-0.062-1.15-0.906-1.15-0.906"/>
	<path fill="none" stroke="#FFFFFF" stroke-linecap="round" stroke-linejoin="round" stroke-miterlimit="10" d="M292.868,417.454
		c0,0-2.063-1.122-3.492-0.604c-1.428,0.518-1.67,0.696-1.67,0.696"/>
	<path fill="none" stroke="#FFFFFF" stroke-linecap="round" stroke-linejoin="round" stroke-miterlimit="10" d="M291.818,417.298
		c0,0-0.078,0.675-0.829,0.821c-0.75,0.144-1.149-1.073-1.149-1.073"/>
	<path fill="none" stroke="#FFFFFF" stroke-linecap="round" stroke-linejoin="round" stroke-miterlimit="10" d="M298.632,433.178
		c0,0.883-0.941,1.599-2.1,1.599c-1.156,0-2.098-0.716-2.098-1.599s0.941-1.599,2.098-1.599
		C297.69,431.579,298.632,432.295,298.632,433.178z"/>
	<path fill="none" stroke="#FFFFFF" stroke-linecap="round" stroke-linejoin="round" stroke-miterlimit="10" d="M280.451,421.752
		c0.303,1.351,0.971,2.929,2.322,4.63c4.266,5.39,13.465,6.392,13.465,6.392"/>
	<path fill="none" stroke="#FFFFFF" stroke-linecap="round" stroke-linejoin="round" stroke-miterlimit="10" d="M280.314,412.863
		c0,0-1.599,1.396-1.799,3.463c-0.198,2.065,0.067,3.197,1.601,5.062c1.16,1.414,2.929,1.666,2.929,1.666"/>
	<path fill="none" stroke="#FFFFFF" stroke-linecap="round" stroke-linejoin="round" stroke-miterlimit="10" d="M312.36,413.196
		c0,0,1.601,1.398,1.799,3.464c0.197,2.064-0.068,3.197-1.6,5.062c-1.161,1.413-2.93,1.665-2.93,1.665"/>
	<path fill="none" stroke="#FFFFFF" stroke-linecap="round" stroke-linejoin="round" stroke-miterlimit="10" d="M313.952,414.995
		c0,0,3.996-20.979-18.385-20.979c-19.047,0-16.783,20.18-16.783,20.18"/>
</g>
</svg>
