<?xml version="1.0" encoding="utf-8"?>
<!-- Generator: Adobe Illustrator 16.0.4, SVG Export Plug-In . SVG Version: 6.00 Build 0)  -->
<!DOCTYPE svg PUBLIC "-//W3C//DTD SVG 1.1//EN" "http://www.w3.org/Graphics/SVG/1.1/DTD/svg11.dtd">
<svg version="1.1" id="Layer_1" xmlns="http://www.w3.org/2000/svg" xmlns:xlink="http://www.w3.org/1999/xlink" x="0px" y="0px"
	 width="595.28px" height="841.89px" viewBox="0 0 595.28 841.89" enable-background="new 0 0 595.28 841.89" xml:space="preserve">
<g>
	<path fill="none" stroke="#FFFFFF" stroke-width="0.5" stroke-miterlimit="10" d="M293.495,437.583c-0.43,0.03-0.86,0.04-1.29,0.04
		c-12,0-21.729-9.729-21.729-21.72c0-12,9.729-21.729,21.729-21.729c11.75,0,21.32,9.33,21.71,20.979"/>
	<path fill="none" stroke="#FFFFFF" stroke-miterlimit="10" d="M293.495,435.014c-0.43,0.03-0.86,0.04-1.29,0.04
		c-10.58,0-19.16-8.58-19.16-19.15c0-10.58,8.58-19.16,19.16-19.16c10.33,0,18.74,8.181,19.13,18.41"/>
	<g>
		<path fill="none" stroke="#FFFFFF" stroke-width="0.5" stroke-miterlimit="10" d="M300.646,415.153
			c0.26-0.27,0.779,0.07,1.18-0.24c0.46-0.369,0.28-0.739,0.18-1.3c-0.09-0.55-0.55-0.18-1.3-0.46c-0.66-0.25-0.8-0.5-1.28-1.189
			c-0.06-0.091-0.13-0.19-0.199-0.29c-0.65-0.931,0,0-0.65-0.65s-0.37-0.65,0-1.3c0.37-0.65,0,0,0.65-0.37
			c0.649-0.37,0.56-0.1,1.02-0.56c0.46-0.461,0.37-0.83,1.11-1.671c0.39-0.43,0.37-0.409,0.479-0.5c0.09-0.06,0.28-0.21,1.01-0.89
			c1.48-1.39,0,0,0.37,0.46c0.37,0.47,0.561,0.28,1.11,0.561c0.56,0.279,0.65,0.18,1.3-0.091c0.65-0.279,0.19-0.649-0.189-1.21
			c-0.37-0.56,0,0-0.271,0c-0.28,0-0.75-0.09-0.75-0.09s0.3-0.41,0.7-0.81c0.02-0.03,0.05-0.05,0.08-0.08
			c0.08-0.08,0.16-0.15,0.24-0.22c0.56-0.471,1.58-0.561,1.58-0.561"/>
		<path fill="none" stroke="#FFFFFF" stroke-width="0.5" stroke-miterlimit="10" d="M284.573,398.406c0,0,0.648,1.3,1.762,1.763
			s1.391,0.092,1.762,1.02s0.094,1.114,0.279,1.855s0.834,1.576,0.834,1.576s0.557,0.742,0.371,1.021s-1.02,0.371-1.02,0.371
			s-0.835-0.372-1.392,0.648s-1.948,1.207-2.505,1.855c-0.556,0.648-0.742-1.856-1.483,0.556s-0.371,2.597-1.392,3.432
			c-1.02,0.835-0.741-0.278-1.02,0.835s-1.854-2.04-2.133-2.318s-0.093-1.021-0.557-1.484s-1.484-0.556-1.67-0.834
			s-0.556-1.113-0.556-1.113l-0.557-0.371"/>
		<path fill="none" stroke="#FFFFFF" stroke-width="0.5" stroke-miterlimit="10" d="M280.771,413.338c0,0-0.649,0.834,0.093,1.576
			s0.927,0.464,1.298,1.484s0.094,0.648,0.465,1.669s0.37,1.392,0.834,1.855s0.835-0.648,0.464,0.464s-1.112,0.741-1.669,1.483
			s0.092,0.093-0.557,0.742c-0.649,0.649-0.928,1.112-0.835,1.669s0.093,1.67,0.093,1.67s0.186,0.278-1.113-0.742
			c-1.298-1.021-0.834-0.277-2.133-2.318s-0.742-2.04-1.205-3.246c-0.465-1.206-1.206-0.834-1.206-2.689s-0.835-1.947,0.557-2.318
			s2.411-0.464,2.411-0.464L280.771,413.338z"/>
		<path fill="none" stroke="#FFFFFF" stroke-width="0.5" stroke-miterlimit="10" d="M281.325,431.514c0,0,2.13-0.65,2.97-0.46
			c0.83,0.18,0.931-0.37,1.95-0.28c1.021,0.09,0,0,0.83,0.65c0.04,0.029,0.08,0.06,0.13,0.08c0.89,0.56,2.65,0.479,2.65,0.479
			l2.319,1.66c0,0,0.631,0.32,1.32,0.61"/>
	</g>
	<g>
		<path fill="none" stroke="#FFFFFF" stroke-width="0.3" stroke-miterlimit="10" d="M301.035,398.9h-0.01
			c-2.09,0.86-5.36,1.42-9.03,1.42c-3.54,0-6.699-0.52-8.8-1.33"/>
		<path fill="none" stroke="#FFFFFF" stroke-width="0.3" stroke-miterlimit="10" d="M276.935,404.341
			c4.271,0.699,9.341,1.1,14.781,1.1c5.81,0,11.199-0.46,15.64-1.25"/>
		<path fill="none" stroke="#FFFFFF" stroke-width="0.3" stroke-miterlimit="10" d="M273.665,411.03c5.03,0.69,11.4,1.09,18.33,1.09
			c7.11,0,13.63-0.43,18.72-1.14"/>
		<path fill="none" stroke="#FFFFFF" stroke-width="0.3" stroke-miterlimit="10" d="M293.495,431.123
			c-0.36-0.01-0.74-0.02-1.11-0.02c-1.859,0-3.619,0.14-5.18,0.4c-1.51,0.239-2.83,0.6-3.85,1.02h-0.011"/>
		<path fill="none" stroke="#FFFFFF" stroke-width="0.3" stroke-miterlimit="10" d="M277.025,427.233
			c4.439-0.79,9.83-1.25,15.64-1.25c0.28,0,0.55,0,0.83,0.01"/>
		<path fill="none" stroke="#FFFFFF" stroke-width="0.3" stroke-miterlimit="10" d="M273.665,420.443c0.95-0.13,1.94-0.25,2.98-0.37
			c2.02-0.21,4.199-0.39,6.52-0.52c2.9-0.16,6-0.25,9.22-0.25c0.37,0,0.74,0,1.11,0.01"/>
	</g>
	<g>
		<path fill="none" stroke="#FFFFFF" stroke-width="0.3" stroke-miterlimit="10" d="M294.476,396.743c0,0,2.31,7.79,2.319,18.41"/>
		<path fill="none" stroke="#FFFFFF" stroke-width="0.3" stroke-miterlimit="10" d="M303.175,415.153c0-1.2-0.069-2.33-0.199-3.39
			c-0.221-1.92-0.631-3.63-1.141-5.141c-0.189-0.56-0.399-1.1-0.62-1.609c-0.949-2.22-2.13-3.96-3.21-5.24
			c-1.779-2.11-3.319-3.03-3.319-3.03"/>
		<path fill="none" stroke="#FFFFFF" stroke-width="0.3" stroke-miterlimit="10" d="M308.485,415.153c0-1.37-0.141-2.649-0.38-3.85
			c-0.53-2.67-1.58-4.91-2.87-6.771c0-0.02-0.021-0.04-0.04-0.06c-1.57-2.271-3.47-3.98-5.18-5.21
			c-2.45-1.76-4.471-2.521-4.471-2.521"/>
	</g>
	<g>
		<path fill="none" stroke="#FFFFFF" stroke-width="0.3" stroke-miterlimit="10" d="M291.856,396.745c0,0-2.32,7.804-2.32,18.453
			s2.346,19.855,2.346,19.855"/>
		<path fill="none" stroke="#FFFFFF" stroke-width="0.3" stroke-miterlimit="10" d="M291.64,396.745c0,0-8.482,5.097-8.482,18.453
			c0,14.681,8.482,19.855,8.482,19.855"/>
		<path fill="none" stroke="#FFFFFF" stroke-width="0.3" stroke-miterlimit="10" d="M290.78,396.745c0,0-12.939,4.855-12.939,18.453
			c0,14.922,13.076,19.855,13.076,19.855"/>
	</g>
	<polyline fill="none" stroke="#FFFFFF" stroke-miterlimit="10" points="315.535,428.273 315.535,444.644 293.495,444.644 
		293.495,415.153 315.535,415.153 315.535,424.634 	"/>
	
		<line fill="none" stroke="#FFFFFF" stroke-width="0.5" stroke-miterlimit="10" x1="296.537" y1="417.774" x2="301.47" y2="417.774"/>
	
		<line fill="none" stroke="#FFFFFF" stroke-width="0.5" stroke-miterlimit="10" x1="296.537" y1="421.973" x2="312.279" y2="421.973"/>
	
		<line fill="none" stroke="#FFFFFF" stroke-width="0.5" stroke-miterlimit="10" x1="296.537" y1="423.967" x2="312.279" y2="423.967"/>
	
		<line fill="none" stroke="#FFFFFF" stroke-width="0.5" stroke-miterlimit="10" x1="296.537" y1="425.751" x2="312.279" y2="425.751"/>
	
		<line fill="none" stroke="#FFFFFF" stroke-width="0.5" stroke-miterlimit="10" x1="311.235" y1="427.743" x2="296.535" y2="427.743"/>
	
		<line fill="none" stroke="#FFFFFF" stroke-width="0.5" stroke-miterlimit="10" x1="299.365" y1="429.533" x2="296.535" y2="429.533"/>
	
		<line fill="none" stroke="#FFFFFF" stroke-width="0.5" stroke-miterlimit="10" x1="308.755" y1="429.533" x2="301.545" y2="429.533"/>
	
		<line fill="none" stroke="#FFFFFF" stroke-width="0.5" stroke-miterlimit="10" x1="300.535" y1="431.523" x2="296.535" y2="431.523"/>
	
		<line fill="none" stroke="#FFFFFF" stroke-width="0.5" stroke-miterlimit="10" x1="312.275" y1="433.304" x2="311.785" y2="433.304"/>
	
		<line fill="none" stroke="#FFFFFF" stroke-width="0.5" stroke-miterlimit="10" x1="301.575" y1="433.304" x2="296.535" y2="433.304"/>
	
		<line fill="none" stroke="#FFFFFF" stroke-width="0.5" stroke-miterlimit="10" x1="312.275" y1="435.304" x2="310.306" y2="435.304"/>
	
		<line fill="none" stroke="#FFFFFF" stroke-width="0.5" stroke-miterlimit="10" x1="302.755" y1="435.304" x2="296.535" y2="435.304"/>
	<polygon fill="none" stroke="#FFFFFF" stroke-miterlimit="10" points="298.741,428.479 306.087,440.968 321.409,420.398 
		306.297,431.312 	"/>
</g>
</svg>
