<?xml version="1.0" encoding="utf-8"?>
<!-- Generator: Adobe Illustrator 16.0.4, SVG Export Plug-In . SVG Version: 6.00 Build 0)  -->
<!DOCTYPE svg PUBLIC "-//W3C//DTD SVG 1.1//EN" "http://www.w3.org/Graphics/SVG/1.1/DTD/svg11.dtd">
<svg version="1.1" id="Layer_1" xmlns="http://www.w3.org/2000/svg" xmlns:xlink="http://www.w3.org/1999/xlink" x="0px" y="0px"
	 width="595.28px" height="841.89px" viewBox="0 0 595.28 841.89" enable-background="new 0 0 595.28 841.89" xml:space="preserve">
<g>
	<g>
		<path fill="#515151" d="M334.966,423.926c-0.227-0.268-0.516-0.484-0.861-0.648c0.225-0.164,0.404-0.373,0.533-0.623
			c0.166-0.332,0.256-0.691,0.256-1.076c0-0.416-0.082-0.777-0.241-1.08c-0.157-0.299-0.375-0.545-0.645-0.736
			c-0.267-0.184-0.575-0.324-0.912-0.408c-0.336-0.09-0.688-0.131-1.052-0.131h-5.437v8.559h5.991c0.408,0,0.79-0.047,1.128-0.137
			c0.348-0.092,0.651-0.244,0.896-0.447c0.251-0.211,0.445-0.477,0.58-0.803c0.13-0.316,0.202-0.703,0.202-1.146
			C335.404,424.711,335.255,424.266,334.966,423.926z M333.283,422.459c-0.205,0.236-0.476,0.354-0.825,0.354h-4.549v-2.469h4.144
			c0.218,0,0.427,0.023,0.62,0.07c0.185,0.041,0.351,0.111,0.482,0.205c0.133,0.092,0.244,0.219,0.32,0.369
			c0.079,0.156,0.119,0.348,0.119,0.576C333.595,421.924,333.497,422.219,333.283,422.459z M327.909,423.91h4.45
			c0.252,0,0.487,0.02,0.705,0.066c0.205,0.041,0.391,0.119,0.54,0.227c0.152,0.102,0.27,0.242,0.362,0.406
			c0.092,0.168,0.138,0.381,0.138,0.639c0,0.504-0.126,0.867-0.374,1.08c-0.255,0.217-0.635,0.328-1.132,0.328h-4.689V423.91z"/>
		<polygon fill="#515151" points="272.552,427.828 272.552,421.574 267.438,427.828 265.104,427.828 265.104,419.115 
			267.095,419.115 267.095,425.367 272.188,419.115 274.541,419.115 274.541,427.828 		"/>
		<polygon fill="#515151" points="352.689,419.223 346.811,426.393 346.811,419.223 345.51,419.223 345.51,427.781 347.241,427.781 
			353.138,420.609 353.138,427.781 354.435,427.781 354.435,419.223 		"/>
		<path fill="#515151" d="M305.788,421.463c-0.251-0.551-0.6-1.014-1.039-1.371c-0.434-0.354-0.955-0.617-1.55-0.783
			c-0.591-0.162-1.239-0.246-1.919-0.246c-0.684,0-1.324,0.084-1.912,0.246c-0.586,0.166-1.112,0.43-1.546,0.783
			c-0.447,0.357-0.791,0.82-1.039,1.371c-0.252,0.555-0.374,1.217-0.374,1.982s0.122,1.434,0.363,1.984
			c0.246,0.555,0.59,1.018,1.026,1.377c0.438,0.359,0.958,0.623,1.558,0.793c0.584,0.17,1.229,0.256,1.924,0.256
			c0.691,0,1.34-0.086,1.934-0.256c0.593-0.166,1.114-0.434,1.548-0.793c0.438-0.359,0.783-0.822,1.028-1.377
			c0.246-0.551,0.366-1.219,0.366-1.984S306.036,422.018,305.788,421.463z M301.28,426.734c-0.536,0-1.032-0.068-1.474-0.195
			c-0.438-0.127-0.813-0.324-1.12-0.59c-0.31-0.262-0.548-0.604-0.721-1.014c-0.168-0.412-0.258-0.908-0.258-1.49
			c0-0.574,0.09-1.07,0.264-1.48c0.176-0.404,0.418-0.744,0.729-1.008c0.307-0.262,0.686-0.459,1.121-0.584
			c0.438-0.125,0.928-0.188,1.459-0.188c0.52,0,1.012,0.062,1.453,0.188c0.435,0.125,0.81,0.322,1.129,0.586
			c0.309,0.262,0.555,0.602,0.728,1.006c0.18,0.41,0.269,0.906,0.269,1.48c0,0.576-0.089,1.078-0.259,1.49
			c-0.171,0.41-0.418,0.752-0.731,1.014c-0.308,0.266-0.688,0.463-1.122,0.59C302.305,426.666,301.813,426.734,301.28,426.734z"/>
		<polygon fill="#515151" points="283.199,419.115 283.199,422.521 278.188,422.521 278.188,419.115 276.138,419.115 
			276.138,427.828 278.188,427.828 278.188,424.279 283.199,424.279 283.199,427.828 285.249,427.828 285.249,419.115 		"/>
		<path fill="#515151" d="M260.903,419.115l-2.656,6.58l-2.671-6.58h-2.752v8.713h1.992v-5.646c0.076,0.189,0.165,0.41,0.267,0.654
			l2.044,4.992h2.218l2.054-4.992c0.104-0.254,0.19-0.48,0.27-0.676v5.668h1.987v-8.713H260.903z"/>
		<path fill="#515151" d="M321.583,419.223h-1.396l-4.282,8.559h1.428l1.206-2.48h4.689l1.203,2.48h1.428L321.583,419.223z
			 M322.682,424.191h-3.6l1.806-3.736L322.682,424.191z"/>
		<polygon fill="#515151" points="339.408,422.971 344.847,419.223 342.817,419.223 337.448,422.949 337.448,419.223 
			336.15,419.223 336.15,427.781 337.448,427.781 337.448,424.336 338.355,423.701 343.221,427.781 345.094,427.781 		"/>
		<path fill="#515151" d="M295.255,426.686v-7.463h-7.084v3.451c0,2.162-0.324,3.064-0.96,4.012h-0.888v3.596h1.285v-2.484h7.232
			v2.484h1.283v-3.596H295.255z M293.968,420.361v6.324h-5.307c0.573-0.969,0.773-2.002,0.773-3.896v-2.428H293.968z"/>
		<path fill="#515151" d="M314.886,423.359c-0.63-0.549-1.604-0.643-1.975-0.643h-4.334v-2.258h6.288v-1.246h-7.591v0.01l0,0v8.559
			h5.637c0.371,0,1.316,0.002,1.975-0.643c0.757-0.736,0.867-1.484,0.867-1.891C315.753,424.838,315.651,424.018,314.886,423.359z
			 M314.02,426.283c-0.301,0.246-0.685,0.377-1.139,0.377h-4.304v-2.82h4.304c0.454,0,0.838,0.121,1.139,0.371
			c0.288,0.244,0.433,0.586,0.433,1.037C314.452,425.703,314.308,426.039,314.02,426.283z"/>
	</g>
	<g>
		<polygon fill="#E68E84" points="259.269,405.994 242.737,415.529 242.737,434.613 240.646,433.396 240.646,414.332 
			254.041,406.586 257.167,404.781 		"/>
	</g>
</g>
</svg>
