<?xml version="1.0" encoding="utf-8"?>
<!-- Generator: Adobe Illustrator 16.0.4, SVG Export Plug-In . SVG Version: 6.00 Build 0)  -->
<!DOCTYPE svg PUBLIC "-//W3C//DTD SVG 1.1//EN" "http://www.w3.org/Graphics/SVG/1.1/DTD/svg11.dtd">
<svg version="1.1" id="Layer_1" xmlns="http://www.w3.org/2000/svg" xmlns:xlink="http://www.w3.org/1999/xlink" x="0px" y="0px"
	 width="595.28px" height="841.89px" viewBox="0 0 595.28 841.89" enable-background="new 0 0 595.28 841.89" xml:space="preserve">
<g>
	<path fill="#515151" d="M286.094,413.363v1.771h-2.971v6.877h-2.165v-6.877h-2.967v-1.771H286.094z"/>
	<path fill="#515151" d="M294.674,413.363v1.771h-5.52v1.439h4.911v1.779h-4.911v1.881h5.52v1.777h-7.692v-8.648H294.674z"/>
	<path fill="#515151" d="M303.585,416.516c-0.286-1.061-1.158-1.607-2.585-1.607c-1.729,0-2.799,1.049-2.799,2.775
		c0,1.734,1.07,2.781,2.799,2.781c1.522,0,2.465-0.678,2.605-1.816h2.375c-0.226,2.135-2.135,3.59-4.98,3.59
		c-3.181,0-5.188-1.814-5.188-4.555c0-2.742,2.008-4.551,5.188-4.551c2.846,0,4.732,1.43,4.943,3.383H303.585z"/>
	<path fill="#515151" d="M314.512,413.363v1.771h-2.971v6.877h-2.167v-6.877h-2.966v-1.771H314.512z"/>
	<path fill="#515151" d="M321.898,413.363v1.129h-5.244v2.299h2.73c2.129,0,3.204,0.918,3.204,2.672c0,1.742-1.036,2.549-3.17,2.549
		h-3.991v-8.648H321.898z M316.654,420.879h2.349c1.61,0,2.356-0.252,2.356-1.453c0-1.205-0.756-1.5-2.43-1.5h-2.275V420.879z"/>
	<path fill="#515151" d="M324.147,413.363h6.878v1.129h-5.651v2.525h5.304v1.135h-5.304v2.727h5.731v1.133h-6.958V413.363z"/>
	<path fill="#515151" d="M339.506,413.363v1.129h-3.301v7.52h-1.227v-7.52h-3.302v-1.129H339.506z"/>
	<path fill="#515151" d="M344.762,413.133c2.943,0,4.729,1.799,4.729,4.551c0,2.754-1.785,4.555-4.742,4.555
		c-2.947,0-4.731-1.801-4.731-4.555C340.017,414.932,341.801,413.133,344.762,413.133z M344.762,421.082
		c2.207,0,3.455-1.285,3.455-3.398c0-2.119-1.261-3.396-3.469-3.396c-2.192,0-3.455,1.277-3.455,3.396
		C341.293,419.807,342.556,421.082,344.762,421.082z"/>
	<path fill="#515151" d="M352.217,416.791h5.269v-3.428h1.229v8.648h-1.229v-4.086h-5.269v4.086h-1.227v-8.648h1.227V416.791z"/>
	<polygon fill="#B35B9C" points="269.568,424.83 253.062,434.355 236.555,424.83 236.555,427.248 253.049,436.773 269.568,427.248 	
		"/>
	<polygon fill="#E68E84" points="250.967,431.406 267.473,421.877 267.473,402.816 269.572,404.027 269.572,423.08 253.062,432.619 
			"/>
</g>
</svg>
