<?xml version="1.0" encoding="utf-8"?>
<!-- Generator: Adobe Illustrator 16.0.4, SVG Export Plug-In . SVG Version: 6.00 Build 0)  -->
<!DOCTYPE svg PUBLIC "-//W3C//DTD SVG 1.1//EN" "http://www.w3.org/Graphics/SVG/1.1/DTD/svg11.dtd">
<svg version="1.1" id="Layer_1" xmlns="http://www.w3.org/2000/svg" xmlns:xlink="http://www.w3.org/1999/xlink" x="0px" y="0px"
	 width="595.28px" height="841.89px" viewBox="0 0 595.28 841.89" enable-background="new 0 0 595.28 841.89" xml:space="preserve">
<g>
	<g>
		<g>
			<path fill="#515151" d="M278.841,418.381c-0.284-1.061-1.152-1.609-2.588-1.609c-1.729,0-2.8,1.049-2.8,2.777
				c0,1.73,1.07,2.775,2.8,2.775c1.527,0,2.467-0.676,2.611-1.809h2.369c-0.222,2.135-2.132,3.584-4.98,3.584
				c-3.182,0-5.18-1.812-5.18-4.551c0-2.742,1.998-4.555,5.18-4.555c2.849,0,4.732,1.43,4.951,3.387H278.841z"/>
			<path fill="#515151" d="M284.868,418.547l3.648-3.324h2.783l-3.812,3.361l4.278,5.291h-2.659l-3.143-3.971l-1.097,0.979v2.992
				h-2.167v-8.652h2.167V418.547z"/>
			<path fill="#515151" d="M295.624,415.223h2.079l3.942,8.652h-2.408l-0.783-1.832h-3.815l-0.779,1.832h-2.331L295.624,415.223z
				 M297.664,420.287l-1.156-2.668l-1.129,2.668H297.664z"/>
			<path fill="#515151" d="M304.455,415.223v6.104l4.323-6.104h2.676v8.652h-2.092v-6.164l-4.359,6.164h-2.634v-8.652H304.455z
				 M305.401,412.34c0.068,0.383,0.401,0.852,1.306,0.852c1.015,0,1.299-0.469,1.36-0.852h1.021
				c-0.033,0.596-0.425,2.121-2.382,2.121c-1.93,0-2.327-1.525-2.36-2.121H305.401z"/>
			<path fill="#515151" d="M320.246,415.223v1.133h-3.302v7.52h-1.229v-7.52h-3.306v-1.133H320.246z"/>
			<path fill="#515151" d="M322.463,423.875h-1.235v-8.652h3.998c2.135,0,3.183,0.811,3.183,2.553c0,1.746-1.08,2.533-3.208,2.533
				h-2.737V423.875z M322.463,419.299h2.273c1.667,0,2.445-0.395,2.445-1.488c0-1.217-0.755-1.576-2.36-1.576h-2.358V419.299z"/>
			<path fill="#515151" d="M329.905,415.223h6.876v1.133h-5.652v2.523h5.306v1.135h-5.306v2.73h5.737v1.131h-6.961V415.223z"/>
			<path fill="#515151" d="M339.614,415.223v7.375l5.453-7.375h1.645v8.652h-1.197v-7.379l-5.434,7.379h-1.662v-8.652H339.614z
				 M341.209,412.91c0.044,0.535,0.467,0.797,1.264,0.797c0.803,0,1.23-0.262,1.266-0.797h0.813
				c-0.121,1.154-0.803,1.705-2.079,1.705c-1.272,0-1.951-0.551-2.075-1.705H341.209z"/>
			<path fill="#515151" d="M356.456,415.223v7.521h0.855v3.586h-1.201v-2.455h-6.983v2.455h-1.208v-3.586h0.81
				c0.643-0.943,1.016-1.812,1.016-4.111v-3.41H356.456z M350.936,416.355v2.395c0,2.107-0.266,3.051-0.882,3.994h5.172v-6.389
				H350.936z"/>
		</g>
	</g>
	<polygon fill="#3AA5B8" points="243.215,406.018 259.728,415.551 259.728,434.617 261.815,433.408 261.815,414.352 245.31,404.812 
			"/>
	<polygon fill="#3AA5B8" points="239.612,408.105 256.117,417.633 256.117,436.693 258.22,435.486 258.22,416.438 241.707,406.891 	
		"/>
</g>
</svg>
